<mxfile host="app.diagrams.net" agent="Mozilla/5.0 (Windows NT 10.0; Win64; x64) AppleWebKit/537.36 (KHTML, like Gecko) Chrome/135.0.0.0 Safari/537.36" version="26.2.9">
  <diagram name="Page-1" id="q-EwyWNT5wgWFBDUk-sF">
    <mxGraphModel dx="5020" dy="2480" grid="1" gridSize="10" guides="1" tooltips="1" connect="1" arrows="1" fold="1" page="1" pageScale="1" pageWidth="850" pageHeight="1100" math="0" shadow="0">
      <root>
        <mxCell id="0" />
        <mxCell id="1" parent="0" />
        <mxCell id="GZcs-82NvciUyBs2JlbP-18" value="&lt;b&gt;UC1- Kayıt Ol&lt;/b&gt;" style="ellipse;whiteSpace=wrap;html=1;strokeWidth=3;" parent="1" vertex="1">
          <mxGeometry x="80" y="140" width="140" height="70" as="geometry" />
        </mxCell>
        <mxCell id="GZcs-82NvciUyBs2JlbP-19" value="Geçersiz Şifre&amp;nbsp;&lt;div&gt;Hatası&lt;/div&gt;" style="ellipse;whiteSpace=wrap;html=1;" parent="1" vertex="1">
          <mxGeometry x="80" y="10" width="116" height="60" as="geometry" />
        </mxCell>
        <mxCell id="GZcs-82NvciUyBs2JlbP-20" value="Kayıtlı E-posta Hatası" style="ellipse;whiteSpace=wrap;html=1;" parent="1" vertex="1">
          <mxGeometry x="200" y="10" width="116" height="60" as="geometry" />
        </mxCell>
        <mxCell id="GZcs-82NvciUyBs2JlbP-21" value="Eksik Bilgi Girişi Hatası" style="ellipse;whiteSpace=wrap;html=1;" parent="1" vertex="1">
          <mxGeometry x="460" y="10" width="116" height="60" as="geometry" />
        </mxCell>
        <mxCell id="GZcs-82NvciUyBs2JlbP-22" value="Sosyal medya ile kayıt ol" style="ellipse;whiteSpace=wrap;html=1;" parent="1" vertex="1">
          <mxGeometry x="590" y="10" width="116" height="60" as="geometry" />
        </mxCell>
        <mxCell id="GZcs-82NvciUyBs2JlbP-23" value="Kullanım Şartlarını Onaylama" style="ellipse;whiteSpace=wrap;html=1;" parent="1" vertex="1">
          <mxGeometry x="330" y="10" width="116" height="60" as="geometry" />
        </mxCell>
        <mxCell id="GZcs-82NvciUyBs2JlbP-24" value="&amp;lt;&amp;lt;extend&amp;gt;&amp;gt;" style="html=1;verticalAlign=bottom;labelBackgroundColor=none;endArrow=open;endFill=0;dashed=1;rounded=0;exitX=0.5;exitY=1;exitDx=0;exitDy=0;entryX=0.5;entryY=0;entryDx=0;entryDy=0;" parent="1" source="GZcs-82NvciUyBs2JlbP-19" target="GZcs-82NvciUyBs2JlbP-18" edge="1">
          <mxGeometry width="160" relative="1" as="geometry">
            <mxPoint x="360" y="260" as="sourcePoint" />
            <mxPoint x="520" y="260" as="targetPoint" />
          </mxGeometry>
        </mxCell>
        <mxCell id="GZcs-82NvciUyBs2JlbP-25" value="&amp;lt;&amp;lt;extend&amp;gt;&amp;gt;" style="html=1;verticalAlign=bottom;labelBackgroundColor=none;endArrow=open;endFill=0;dashed=1;rounded=0;exitX=0.293;exitY=0.95;exitDx=0;exitDy=0;entryX=0.779;entryY=0.071;entryDx=0;entryDy=0;entryPerimeter=0;exitPerimeter=0;" parent="1" source="GZcs-82NvciUyBs2JlbP-20" target="GZcs-82NvciUyBs2JlbP-18" edge="1">
          <mxGeometry width="160" relative="1" as="geometry">
            <mxPoint x="236" y="100" as="sourcePoint" />
            <mxPoint x="208" y="150" as="targetPoint" />
          </mxGeometry>
        </mxCell>
        <mxCell id="GZcs-82NvciUyBs2JlbP-26" value="&amp;lt;&amp;lt;extend&amp;gt;&amp;gt;" style="html=1;verticalAlign=bottom;labelBackgroundColor=none;endArrow=open;endFill=0;dashed=1;rounded=0;exitX=0.016;exitY=0.721;exitDx=0;exitDy=0;entryX=1;entryY=0.5;entryDx=0;entryDy=0;exitPerimeter=0;" parent="1" source="GZcs-82NvciUyBs2JlbP-21" target="GZcs-82NvciUyBs2JlbP-18" edge="1">
          <mxGeometry x="0.0045" width="160" relative="1" as="geometry">
            <mxPoint x="339" y="148" as="sourcePoint" />
            <mxPoint x="228" y="187" as="targetPoint" />
            <mxPoint as="offset" />
          </mxGeometry>
        </mxCell>
        <mxCell id="GZcs-82NvciUyBs2JlbP-27" value="&amp;lt;&amp;lt;include&amp;gt;&amp;gt;" style="html=1;verticalAlign=bottom;labelBackgroundColor=none;endArrow=open;endFill=0;dashed=1;rounded=0;exitX=0.964;exitY=0.314;exitDx=0;exitDy=0;exitPerimeter=0;entryX=0.017;entryY=0.65;entryDx=0;entryDy=0;entryPerimeter=0;" parent="1" source="GZcs-82NvciUyBs2JlbP-18" target="GZcs-82NvciUyBs2JlbP-23" edge="1">
          <mxGeometry width="160" relative="1" as="geometry">
            <mxPoint x="250" y="150" as="sourcePoint" />
            <mxPoint x="353" y="194" as="targetPoint" />
          </mxGeometry>
        </mxCell>
        <mxCell id="GZcs-82NvciUyBs2JlbP-28" value="&amp;lt;&amp;lt;extend&amp;gt;&amp;gt;" style="html=1;verticalAlign=bottom;labelBackgroundColor=none;endArrow=open;endFill=0;dashed=1;rounded=0;exitX=0.224;exitY=0.95;exitDx=0;exitDy=0;exitPerimeter=0;entryX=0.999;entryY=0.662;entryDx=0;entryDy=0;entryPerimeter=0;" parent="1" source="GZcs-82NvciUyBs2JlbP-22" target="GZcs-82NvciUyBs2JlbP-18" edge="1">
          <mxGeometry x="0.0045" width="160" relative="1" as="geometry">
            <mxPoint x="366" y="220" as="sourcePoint" />
            <mxPoint x="230" y="200" as="targetPoint" />
            <mxPoint as="offset" />
          </mxGeometry>
        </mxCell>
        <mxCell id="GZcs-82NvciUyBs2JlbP-29" value="&lt;b&gt;UC2- Üye Girişi&lt;/b&gt;" style="ellipse;whiteSpace=wrap;html=1;strokeWidth=3;" parent="1" vertex="1">
          <mxGeometry x="80" y="270" width="140" height="70" as="geometry" />
        </mxCell>
        <mxCell id="GZcs-82NvciUyBs2JlbP-30" value="&amp;lt;&amp;lt;include&amp;gt;&amp;gt;" style="html=1;verticalAlign=bottom;labelBackgroundColor=none;endArrow=open;endFill=0;dashed=1;rounded=0;entryX=0.5;entryY=0;entryDx=0;entryDy=0;exitX=0.5;exitY=1;exitDx=0;exitDy=0;" parent="1" source="GZcs-82NvciUyBs2JlbP-18" target="GZcs-82NvciUyBs2JlbP-29" edge="1">
          <mxGeometry width="160" relative="1" as="geometry">
            <mxPoint x="140" y="220" as="sourcePoint" />
            <mxPoint x="210" y="274" as="targetPoint" />
          </mxGeometry>
        </mxCell>
        <mxCell id="GZcs-82NvciUyBs2JlbP-31" value="&lt;div&gt;&lt;span style=&quot;background-color: transparent; color: light-dark(rgb(0, 0, 0), rgb(255, 255, 255));&quot;&gt;Kimlik Doğrulaması&lt;/span&gt;&lt;/div&gt;" style="ellipse;whiteSpace=wrap;html=1;" parent="1" vertex="1">
          <mxGeometry x="432" y="320" width="116" height="60" as="geometry" />
        </mxCell>
        <mxCell id="GZcs-82NvciUyBs2JlbP-32" value="UC2.1&lt;div&gt;Şifremi Unuttum&lt;/div&gt;" style="ellipse;whiteSpace=wrap;html=1;" parent="1" vertex="1">
          <mxGeometry x="260" y="190" width="116" height="60" as="geometry" />
        </mxCell>
        <mxCell id="GZcs-82NvciUyBs2JlbP-33" value="&lt;div&gt;UC2.3&lt;/div&gt;Captcha Doğrulaması" style="ellipse;whiteSpace=wrap;html=1;" parent="1" vertex="1">
          <mxGeometry x="500" y="260" width="116" height="60" as="geometry" />
        </mxCell>
        <mxCell id="GZcs-82NvciUyBs2JlbP-34" value="&lt;div&gt;Kullanıcı Bilgileri Yanlış Hatası&lt;/div&gt;" style="ellipse;whiteSpace=wrap;html=1;" parent="1" vertex="1">
          <mxGeometry x="286" y="260" width="116" height="60" as="geometry" />
        </mxCell>
        <mxCell id="GZcs-82NvciUyBs2JlbP-35" value="&amp;lt;&amp;lt;include&amp;gt;&amp;gt;" style="html=1;verticalAlign=bottom;labelBackgroundColor=none;endArrow=open;endFill=0;dashed=1;rounded=0;exitX=0.925;exitY=0.76;exitDx=0;exitDy=0;entryX=0;entryY=0.5;entryDx=0;entryDy=0;exitPerimeter=0;" parent="1" source="GZcs-82NvciUyBs2JlbP-29" target="GZcs-82NvciUyBs2JlbP-31" edge="1">
          <mxGeometry width="160" relative="1" as="geometry">
            <mxPoint x="273" y="510" as="sourcePoint" />
            <mxPoint x="156" y="543" as="targetPoint" />
          </mxGeometry>
        </mxCell>
        <mxCell id="GZcs-82NvciUyBs2JlbP-36" value="&amp;lt;&amp;lt;extend&amp;gt;&amp;gt;" style="html=1;verticalAlign=bottom;labelBackgroundColor=none;endArrow=open;endFill=0;dashed=1;rounded=0;exitX=0;exitY=0.5;exitDx=0;exitDy=0;entryX=1;entryY=0.5;entryDx=0;entryDy=0;" parent="1" source="GZcs-82NvciUyBs2JlbP-34" target="GZcs-82NvciUyBs2JlbP-29" edge="1">
          <mxGeometry width="160" relative="1" as="geometry">
            <mxPoint x="166" y="460" as="sourcePoint" />
            <mxPoint x="130" y="360" as="targetPoint" />
          </mxGeometry>
        </mxCell>
        <mxCell id="GZcs-82NvciUyBs2JlbP-37" value="&amp;lt;&amp;lt;extend&amp;gt;&amp;gt;" style="html=1;verticalAlign=bottom;labelBackgroundColor=none;endArrow=open;endFill=0;dashed=1;rounded=0;exitX=0;exitY=0.5;exitDx=0;exitDy=0;entryX=1;entryY=0;entryDx=0;entryDy=0;" parent="1" source="GZcs-82NvciUyBs2JlbP-32" target="GZcs-82NvciUyBs2JlbP-29" edge="1">
          <mxGeometry width="160" relative="1" as="geometry">
            <mxPoint x="272" y="595" as="sourcePoint" />
            <mxPoint x="320" y="500" as="targetPoint" />
          </mxGeometry>
        </mxCell>
        <mxCell id="GZcs-82NvciUyBs2JlbP-38" value="&amp;lt;&amp;lt;include&amp;gt;&amp;gt;" style="html=1;verticalAlign=bottom;labelBackgroundColor=none;endArrow=open;endFill=0;dashed=1;rounded=0;exitX=1;exitY=0.5;exitDx=0;exitDy=0;entryX=0;entryY=0.5;entryDx=0;entryDy=0;" parent="1" source="GZcs-82NvciUyBs2JlbP-34" target="GZcs-82NvciUyBs2JlbP-33" edge="1">
          <mxGeometry width="160" relative="1" as="geometry">
            <mxPoint x="356" y="680" as="sourcePoint" />
            <mxPoint x="230" y="742" as="targetPoint" />
          </mxGeometry>
        </mxCell>
        <mxCell id="GZcs-82NvciUyBs2JlbP-39" value="&lt;div&gt;UC2.1.2&lt;/div&gt;Telefon Numarası İle&lt;div&gt;Şifre Sıfırlama&lt;/div&gt;" style="ellipse;whiteSpace=wrap;html=1;" parent="1" vertex="1">
          <mxGeometry x="480" y="190" width="116" height="60" as="geometry" />
        </mxCell>
        <mxCell id="GZcs-82NvciUyBs2JlbP-40" value="UC2.1.1&lt;div&gt;E-posta İle Şifre Sıfırlama&lt;/div&gt;" style="ellipse;whiteSpace=wrap;html=1;" parent="1" vertex="1">
          <mxGeometry x="425" y="130" width="116" height="60" as="geometry" />
        </mxCell>
        <mxCell id="GZcs-82NvciUyBs2JlbP-41" value="&amp;lt;&amp;lt;include&amp;gt;&amp;gt;" style="html=1;verticalAlign=bottom;labelBackgroundColor=none;endArrow=open;endFill=0;dashed=1;rounded=0;exitX=0.5;exitY=0;exitDx=0;exitDy=0;entryX=0;entryY=1;entryDx=0;entryDy=0;" parent="1" source="GZcs-82NvciUyBs2JlbP-32" target="GZcs-82NvciUyBs2JlbP-40" edge="1">
          <mxGeometry width="160" relative="1" as="geometry">
            <mxPoint x="212" y="653" as="sourcePoint" />
            <mxPoint x="161" y="704" as="targetPoint" />
          </mxGeometry>
        </mxCell>
        <mxCell id="GZcs-82NvciUyBs2JlbP-42" value="&amp;lt;&amp;lt;extend&amp;gt;&amp;gt;" style="html=1;verticalAlign=bottom;labelBackgroundColor=none;endArrow=open;endFill=0;dashed=1;rounded=0;exitX=0;exitY=0.5;exitDx=0;exitDy=0;entryX=1;entryY=0.5;entryDx=0;entryDy=0;" parent="1" source="GZcs-82NvciUyBs2JlbP-39" target="GZcs-82NvciUyBs2JlbP-32" edge="1">
          <mxGeometry width="160" relative="1" as="geometry">
            <mxPoint x="238" y="595" as="sourcePoint" />
            <mxPoint x="320" y="500" as="targetPoint" />
          </mxGeometry>
        </mxCell>
        <mxCell id="GZcs-82NvciUyBs2JlbP-43" value="UC2.2&lt;div&gt;Oturum açık kalması&lt;/div&gt;" style="ellipse;whiteSpace=wrap;html=1;" parent="1" vertex="1">
          <mxGeometry x="316" y="360" width="116" height="60" as="geometry" />
        </mxCell>
        <mxCell id="GZcs-82NvciUyBs2JlbP-44" value="&amp;lt;&amp;lt;extend&amp;gt;&amp;gt;" style="html=1;verticalAlign=bottom;labelBackgroundColor=none;endArrow=open;endFill=0;dashed=1;rounded=0;exitX=0.001;exitY=0.369;exitDx=0;exitDy=0;entryX=0.606;entryY=1.004;entryDx=0;entryDy=0;entryPerimeter=0;exitPerimeter=0;" parent="1" source="GZcs-82NvciUyBs2JlbP-43" target="GZcs-82NvciUyBs2JlbP-29" edge="1">
          <mxGeometry width="160" relative="1" as="geometry">
            <mxPoint x="240" y="470" as="sourcePoint" />
            <mxPoint x="100" y="460" as="targetPoint" />
          </mxGeometry>
        </mxCell>
        <mxCell id="GZcs-82NvciUyBs2JlbP-138" value="&lt;b&gt;UC3- Abonelik Planı Seçme&lt;/b&gt;" style="ellipse;whiteSpace=wrap;html=1;strokeWidth=3;" parent="1" vertex="1">
          <mxGeometry x="80" y="495" width="140" height="70" as="geometry" />
        </mxCell>
        <mxCell id="GZcs-82NvciUyBs2JlbP-139" value="UC3.2&lt;div&gt;Öğrenci Planı&lt;/div&gt;" style="ellipse;whiteSpace=wrap;html=1;" parent="1" vertex="1">
          <mxGeometry x="307" y="520" width="116" height="60" as="geometry" />
        </mxCell>
        <mxCell id="GZcs-82NvciUyBs2JlbP-140" value="UC3.4&lt;div&gt;Duo planı&lt;/div&gt;" style="ellipse;whiteSpace=wrap;html=1;" parent="1" vertex="1">
          <mxGeometry x="240" y="660" width="116" height="60" as="geometry" />
        </mxCell>
        <mxCell id="GZcs-82NvciUyBs2JlbP-141" value="UC3.3&lt;div&gt;Aile Planı&lt;/div&gt;" style="ellipse;whiteSpace=wrap;html=1;" parent="1" vertex="1">
          <mxGeometry x="330" y="600" width="116" height="60" as="geometry" />
        </mxCell>
        <mxCell id="GZcs-82NvciUyBs2JlbP-142" value="UC3.1&lt;div&gt;Bireysel Plan&lt;/div&gt;" style="ellipse;whiteSpace=wrap;html=1;" parent="1" vertex="1">
          <mxGeometry x="277" y="450" width="116" height="60" as="geometry" />
        </mxCell>
        <mxCell id="GZcs-82NvciUyBs2JlbP-143" value="&amp;lt;&amp;lt;extend&amp;gt;&amp;gt;" style="html=1;verticalAlign=bottom;labelBackgroundColor=none;endArrow=open;endFill=0;dashed=1;rounded=0;exitX=0;exitY=0.5;exitDx=0;exitDy=0;entryX=1;entryY=0.5;entryDx=0;entryDy=0;" parent="1" source="GZcs-82NvciUyBs2JlbP-139" target="GZcs-82NvciUyBs2JlbP-138" edge="1">
          <mxGeometry width="160" relative="1" as="geometry">
            <mxPoint x="276" y="520" as="sourcePoint" />
            <mxPoint x="136" y="510" as="targetPoint" />
          </mxGeometry>
        </mxCell>
        <mxCell id="GZcs-82NvciUyBs2JlbP-144" value="&amp;lt;&amp;lt;extend&amp;gt;&amp;gt;" style="html=1;verticalAlign=bottom;labelBackgroundColor=none;endArrow=open;endFill=0;dashed=1;rounded=0;exitX=0.233;exitY=0.033;exitDx=0;exitDy=0;entryX=0.721;entryY=0.929;entryDx=0;entryDy=0;exitPerimeter=0;entryPerimeter=0;" parent="1" source="GZcs-82NvciUyBs2JlbP-141" target="GZcs-82NvciUyBs2JlbP-138" edge="1">
          <mxGeometry width="160" relative="1" as="geometry">
            <mxPoint x="298" y="645" as="sourcePoint" />
            <mxPoint x="218" y="630" as="targetPoint" />
          </mxGeometry>
        </mxCell>
        <mxCell id="GZcs-82NvciUyBs2JlbP-145" value="&amp;lt;&amp;lt;extend&amp;gt;&amp;gt;" style="html=1;verticalAlign=bottom;labelBackgroundColor=none;endArrow=open;endFill=0;dashed=1;rounded=0;exitX=0.295;exitY=-0.017;exitDx=0;exitDy=0;entryX=0.5;entryY=1;entryDx=0;entryDy=0;exitPerimeter=0;" parent="1" source="GZcs-82NvciUyBs2JlbP-140" target="GZcs-82NvciUyBs2JlbP-138" edge="1">
          <mxGeometry width="160" relative="1" as="geometry">
            <mxPoint x="229.5" y="667" as="sourcePoint" />
            <mxPoint x="142.5" y="600" as="targetPoint" />
          </mxGeometry>
        </mxCell>
        <mxCell id="GZcs-82NvciUyBs2JlbP-146" value="&amp;lt;&amp;lt;extend&amp;gt;&amp;gt;" style="html=1;verticalAlign=bottom;labelBackgroundColor=none;endArrow=open;endFill=0;dashed=1;rounded=0;exitX=0.078;exitY=0.733;exitDx=0;exitDy=0;entryX=1;entryY=0;entryDx=0;entryDy=0;exitPerimeter=0;" parent="1" source="GZcs-82NvciUyBs2JlbP-142" target="GZcs-82NvciUyBs2JlbP-138" edge="1">
          <mxGeometry width="160" relative="1" as="geometry">
            <mxPoint x="346" y="580" as="sourcePoint" />
            <mxPoint x="266" y="565" as="targetPoint" />
          </mxGeometry>
        </mxCell>
        <mxCell id="GZcs-82NvciUyBs2JlbP-147" value="UC3.2.1&lt;div&gt;Kimlik Doğrulama&lt;/div&gt;" style="ellipse;whiteSpace=wrap;html=1;" parent="1" vertex="1">
          <mxGeometry x="474" y="450" width="116" height="60" as="geometry" />
        </mxCell>
        <mxCell id="GZcs-82NvciUyBs2JlbP-148" value="&amp;lt;&amp;lt;include&amp;gt;&amp;gt;" style="html=1;verticalAlign=bottom;labelBackgroundColor=none;endArrow=open;endFill=0;dashed=1;rounded=0;exitX=0.948;exitY=0.219;exitDx=0;exitDy=0;entryX=0.016;entryY=0.675;entryDx=0;entryDy=0;exitPerimeter=0;entryPerimeter=0;" parent="1" source="GZcs-82NvciUyBs2JlbP-139" target="GZcs-82NvciUyBs2JlbP-147" edge="1">
          <mxGeometry width="160" relative="1" as="geometry">
            <mxPoint x="-78" y="852" as="sourcePoint" />
            <mxPoint x="146" y="589" as="targetPoint" />
          </mxGeometry>
        </mxCell>
        <mxCell id="GZcs-82NvciUyBs2JlbP-149" value="UC3.4.1&lt;div&gt;İkinci Kullanıcı Seçilmesi&lt;/div&gt;" style="ellipse;whiteSpace=wrap;html=1;" parent="1" vertex="1">
          <mxGeometry x="400" y="720" width="116" height="60" as="geometry" />
        </mxCell>
        <mxCell id="GZcs-82NvciUyBs2JlbP-150" value="&amp;lt;&amp;lt;include&amp;gt;&amp;gt;" style="html=1;verticalAlign=bottom;labelBackgroundColor=none;endArrow=open;endFill=0;dashed=1;rounded=0;entryX=0.069;entryY=0.192;entryDx=0;entryDy=0;entryPerimeter=0;" parent="1" source="GZcs-82NvciUyBs2JlbP-140" target="GZcs-82NvciUyBs2JlbP-149" edge="1">
          <mxGeometry x="0.0011" width="160" relative="1" as="geometry">
            <mxPoint x="277" y="722" as="sourcePoint" />
            <mxPoint x="374" y="700" as="targetPoint" />
            <mxPoint as="offset" />
          </mxGeometry>
        </mxCell>
        <mxCell id="GZcs-82NvciUyBs2JlbP-151" value="İkinci Kullanıcının Daveti Reddetmesi" style="ellipse;whiteSpace=wrap;html=1;" parent="1" vertex="1">
          <mxGeometry x="600" y="780" width="116" height="60" as="geometry" />
        </mxCell>
        <mxCell id="GZcs-82NvciUyBs2JlbP-152" value="Kimlik Doğrulama&lt;div&gt;Hatası&lt;/div&gt;" style="ellipse;whiteSpace=wrap;html=1;" parent="1" vertex="1">
          <mxGeometry x="640" y="450" width="116" height="60" as="geometry" />
        </mxCell>
        <mxCell id="GZcs-82NvciUyBs2JlbP-153" value="&amp;lt;&amp;lt;extend&amp;gt;&amp;gt;" style="html=1;verticalAlign=bottom;labelBackgroundColor=none;endArrow=open;endFill=0;dashed=1;rounded=0;exitX=0.026;exitY=0.296;exitDx=0;exitDy=0;entryX=0.963;entryY=0.65;entryDx=0;entryDy=0;entryPerimeter=0;exitPerimeter=0;" parent="1" source="GZcs-82NvciUyBs2JlbP-151" target="GZcs-82NvciUyBs2JlbP-149" edge="1">
          <mxGeometry width="160" relative="1" as="geometry">
            <mxPoint x="388" y="807" as="sourcePoint" />
            <mxPoint x="316" y="750" as="targetPoint" />
          </mxGeometry>
        </mxCell>
        <mxCell id="GZcs-82NvciUyBs2JlbP-154" value="&amp;lt;&amp;lt;extend&amp;gt;&amp;gt;" style="html=1;verticalAlign=bottom;labelBackgroundColor=none;endArrow=open;endFill=0;dashed=1;rounded=0;exitX=0;exitY=0.5;exitDx=0;exitDy=0;entryX=1;entryY=0.5;entryDx=0;entryDy=0;" parent="1" source="GZcs-82NvciUyBs2JlbP-152" target="GZcs-82NvciUyBs2JlbP-147" edge="1">
          <mxGeometry width="160" relative="1" as="geometry">
            <mxPoint x="665.9999999999968" y="490" as="sourcePoint" />
            <mxPoint x="556" y="560" as="targetPoint" />
          </mxGeometry>
        </mxCell>
        <mxCell id="GZcs-82NvciUyBs2JlbP-155" value="UC3.3.1&lt;div&gt;İkametgah Doğrulama&lt;/div&gt;" style="ellipse;whiteSpace=wrap;html=1;" parent="1" vertex="1">
          <mxGeometry x="524" y="520" width="116" height="60" as="geometry" />
        </mxCell>
        <mxCell id="GZcs-82NvciUyBs2JlbP-156" value="&amp;lt;&amp;lt;include&amp;gt;&amp;gt;" style="html=1;verticalAlign=bottom;labelBackgroundColor=none;endArrow=open;endFill=0;dashed=1;rounded=0;exitX=1;exitY=0;exitDx=0;exitDy=0;entryX=0;entryY=0.5;entryDx=0;entryDy=0;" parent="1" source="GZcs-82NvciUyBs2JlbP-141" target="GZcs-82NvciUyBs2JlbP-155" edge="1">
          <mxGeometry width="160" relative="1" as="geometry">
            <mxPoint x="436" y="553" as="sourcePoint" />
            <mxPoint x="513" y="521" as="targetPoint" />
          </mxGeometry>
        </mxCell>
        <mxCell id="GZcs-82NvciUyBs2JlbP-157" value="İkametgah Doğrulama Hatası" style="ellipse;whiteSpace=wrap;html=1;" parent="1" vertex="1">
          <mxGeometry x="730" y="510" width="116" height="60" as="geometry" />
        </mxCell>
        <mxCell id="GZcs-82NvciUyBs2JlbP-158" value="&amp;lt;&amp;lt;extend&amp;gt;&amp;gt;" style="html=1;verticalAlign=bottom;labelBackgroundColor=none;endArrow=open;endFill=0;dashed=1;rounded=0;exitX=0;exitY=0.5;exitDx=0;exitDy=0;entryX=0.996;entryY=0.384;entryDx=0;entryDy=0;entryPerimeter=0;" parent="1" source="GZcs-82NvciUyBs2JlbP-157" target="GZcs-82NvciUyBs2JlbP-155" edge="1">
          <mxGeometry width="160" relative="1" as="geometry">
            <mxPoint x="610" y="650" as="sourcePoint" />
            <mxPoint x="632" y="530" as="targetPoint" />
          </mxGeometry>
        </mxCell>
        <mxCell id="GZcs-82NvciUyBs2JlbP-159" value="UC3.3.2&lt;div&gt;Aile Üyelerinin Eklenmesi&lt;/div&gt;" style="ellipse;whiteSpace=wrap;html=1;" parent="1" vertex="1">
          <mxGeometry x="632" y="570" width="116" height="60" as="geometry" />
        </mxCell>
        <mxCell id="GZcs-82NvciUyBs2JlbP-160" value="&amp;lt;&amp;lt;include&amp;gt;&amp;gt;" style="html=1;verticalAlign=bottom;labelBackgroundColor=none;endArrow=open;endFill=0;dashed=1;rounded=0;exitX=1.006;exitY=0.358;exitDx=0;exitDy=0;entryX=0.017;entryY=0.367;entryDx=0;entryDy=0;entryPerimeter=0;exitPerimeter=0;" parent="1" source="GZcs-82NvciUyBs2JlbP-141" target="GZcs-82NvciUyBs2JlbP-159" edge="1">
          <mxGeometry width="160" relative="1" as="geometry">
            <mxPoint x="362" y="660" as="sourcePoint" />
            <mxPoint x="456" y="630" as="targetPoint" />
          </mxGeometry>
        </mxCell>
        <mxCell id="GZcs-82NvciUyBs2JlbP-161" value="UC3.3.3&lt;div&gt;Aile Yöneticisi Seçme&lt;/div&gt;" style="ellipse;whiteSpace=wrap;html=1;" parent="1" vertex="1">
          <mxGeometry x="632" y="640" width="116" height="60" as="geometry" />
        </mxCell>
        <mxCell id="GZcs-82NvciUyBs2JlbP-162" value="&amp;lt;&amp;lt;include&amp;gt;&amp;gt;" style="html=1;verticalAlign=bottom;labelBackgroundColor=none;endArrow=open;endFill=0;dashed=1;rounded=0;exitX=0.974;exitY=0.692;exitDx=0;exitDy=0;entryX=0.021;entryY=0.385;entryDx=0;entryDy=0;entryPerimeter=0;exitPerimeter=0;" parent="1" source="GZcs-82NvciUyBs2JlbP-141" target="GZcs-82NvciUyBs2JlbP-161" edge="1">
          <mxGeometry width="160" relative="1" as="geometry">
            <mxPoint x="345" y="681" as="sourcePoint" />
            <mxPoint x="598" y="702" as="targetPoint" />
          </mxGeometry>
        </mxCell>
        <mxCell id="GZcs-82NvciUyBs2JlbP-163" value="UC3.3.4&lt;div&gt;Aile Yöneticisi Seçme&lt;/div&gt;" style="ellipse;whiteSpace=wrap;html=1;" parent="1" vertex="1">
          <mxGeometry x="630" y="710" width="116" height="60" as="geometry" />
        </mxCell>
        <mxCell id="GZcs-82NvciUyBs2JlbP-164" value="&amp;lt;&amp;lt;extend&amp;gt;&amp;gt;" style="html=1;verticalAlign=bottom;labelBackgroundColor=none;endArrow=open;endFill=0;dashed=1;rounded=0;exitX=-0.006;exitY=0.358;exitDx=0;exitDy=0;entryX=1;entryY=1;entryDx=0;entryDy=0;exitPerimeter=0;" parent="1" source="GZcs-82NvciUyBs2JlbP-163" target="GZcs-82NvciUyBs2JlbP-141" edge="1">
          <mxGeometry x="-0.0056" width="160" relative="1" as="geometry">
            <mxPoint x="326" y="870" as="sourcePoint" />
            <mxPoint x="290" y="680" as="targetPoint" />
            <mxPoint as="offset" />
          </mxGeometry>
        </mxCell>
        <mxCell id="GZcs-82NvciUyBs2JlbP-165" value="&lt;b&gt;UC4- Abonelik Planı Değiştirme&lt;/b&gt;" style="ellipse;whiteSpace=wrap;html=1;strokeWidth=3;" parent="1" vertex="1">
          <mxGeometry x="80" y="740" width="140" height="70" as="geometry" />
        </mxCell>
        <mxCell id="GZcs-82NvciUyBs2JlbP-166" value="UC4.1&lt;div&gt;Abonelik Planı&amp;nbsp;&lt;/div&gt;&lt;div&gt;İptal Etme&lt;/div&gt;" style="ellipse;whiteSpace=wrap;html=1;" parent="1" vertex="1">
          <mxGeometry x="285" y="740" width="100" height="50" as="geometry" />
        </mxCell>
        <mxCell id="GZcs-82NvciUyBs2JlbP-167" value="&amp;lt;&amp;lt;extend&amp;gt;&amp;gt;" style="html=1;verticalAlign=bottom;labelBackgroundColor=none;endArrow=open;endFill=0;dashed=1;rounded=0;exitX=0;exitY=0.5;exitDx=0;exitDy=0;entryX=0.977;entryY=0.664;entryDx=0;entryDy=0;entryPerimeter=0;" parent="1" source="GZcs-82NvciUyBs2JlbP-166" target="GZcs-82NvciUyBs2JlbP-165" edge="1">
          <mxGeometry width="160" relative="1" as="geometry">
            <mxPoint x="306" y="960" as="sourcePoint" />
            <mxPoint x="200" y="960" as="targetPoint" />
          </mxGeometry>
        </mxCell>
        <mxCell id="GZcs-82NvciUyBs2JlbP-168" value="&amp;lt;&amp;lt;include&amp;gt;&amp;gt;" style="html=1;verticalAlign=bottom;labelBackgroundColor=none;endArrow=open;endFill=0;dashed=1;rounded=0;exitX=0.5;exitY=1;exitDx=0;exitDy=0;entryX=0.5;entryY=0;entryDx=0;entryDy=0;" parent="1" source="GZcs-82NvciUyBs2JlbP-138" target="GZcs-82NvciUyBs2JlbP-165" edge="1">
          <mxGeometry width="160" relative="1" as="geometry">
            <mxPoint x="151" y="922" as="sourcePoint" />
            <mxPoint x="100" y="850" as="targetPoint" />
          </mxGeometry>
        </mxCell>
        <mxCell id="GZcs-82NvciUyBs2JlbP-169" value="&amp;lt;&amp;lt;extend&amp;gt;&amp;gt;" style="html=1;verticalAlign=bottom;labelBackgroundColor=none;endArrow=open;endFill=0;dashed=1;rounded=0;entryX=0.5;entryY=1;entryDx=0;entryDy=0;exitX=0.5;exitY=0;exitDx=0;exitDy=0;" parent="1" source="GZcs-82NvciUyBs2JlbP-138" target="GZcs-82NvciUyBs2JlbP-29" edge="1">
          <mxGeometry width="160" relative="1" as="geometry">
            <mxPoint x="122" y="682" as="sourcePoint" />
            <mxPoint x="105" y="346" as="targetPoint" />
          </mxGeometry>
        </mxCell>
        <mxCell id="GZcs-82NvciUyBs2JlbP-171" value="UC4.1&lt;div&gt;Abonelik Planı&amp;nbsp;&lt;/div&gt;&lt;div&gt;İptal Etme&lt;/div&gt;" style="ellipse;whiteSpace=wrap;html=1;" parent="1" vertex="1">
          <mxGeometry x="446" y="800" width="107" height="50" as="geometry" />
        </mxCell>
        <mxCell id="GZcs-82NvciUyBs2JlbP-172" value="&amp;lt;&amp;lt;extend&amp;gt;&amp;gt;" style="html=1;verticalAlign=bottom;labelBackgroundColor=none;endArrow=open;endFill=0;dashed=1;rounded=0;exitX=0;exitY=0.5;exitDx=0;exitDy=0;entryX=1;entryY=1;entryDx=0;entryDy=0;" parent="1" source="GZcs-82NvciUyBs2JlbP-171" target="GZcs-82NvciUyBs2JlbP-165" edge="1">
          <mxGeometry width="160" relative="1" as="geometry">
            <mxPoint x="296" y="1140" as="sourcePoint" />
            <mxPoint x="327" y="1016" as="targetPoint" />
          </mxGeometry>
        </mxCell>
        <mxCell id="GZcs-82NvciUyBs2JlbP-173" value="&lt;b&gt;UC5- Abonelik Satın&lt;/b&gt;&lt;div&gt;&lt;b&gt;Alma&lt;/b&gt;&lt;/div&gt;" style="ellipse;whiteSpace=wrap;html=1;strokeWidth=3;" parent="1" vertex="1">
          <mxGeometry x="79" y="900" width="140" height="70" as="geometry" />
        </mxCell>
        <mxCell id="GZcs-82NvciUyBs2JlbP-175" value="UC5.1&lt;div&gt;Faturaya Yansıtma&lt;/div&gt;" style="ellipse;whiteSpace=wrap;html=1;" parent="1" vertex="1">
          <mxGeometry x="390" y="1030" width="100" height="50" as="geometry" />
        </mxCell>
        <mxCell id="GZcs-82NvciUyBs2JlbP-176" value="UC5.2&lt;div&gt;Kredi Kartıyla Ödeme&lt;/div&gt;" style="ellipse;whiteSpace=wrap;html=1;" parent="1" vertex="1">
          <mxGeometry x="318" y="960" width="116" height="60" as="geometry" />
        </mxCell>
        <mxCell id="GZcs-82NvciUyBs2JlbP-177" value="&amp;lt;&amp;lt;extend&amp;gt;&amp;gt;" style="html=1;verticalAlign=bottom;labelBackgroundColor=none;endArrow=open;endFill=0;dashed=1;rounded=0;exitX=0.052;exitY=0.333;exitDx=0;exitDy=0;entryX=0.934;entryY=0.77;entryDx=0;entryDy=0;entryPerimeter=0;exitPerimeter=0;" parent="1" source="GZcs-82NvciUyBs2JlbP-176" target="GZcs-82NvciUyBs2JlbP-173" edge="1">
          <mxGeometry width="160" relative="1" as="geometry">
            <mxPoint x="348" y="1105" as="sourcePoint" />
            <mxPoint x="231" y="1051" as="targetPoint" />
          </mxGeometry>
        </mxCell>
        <mxCell id="GZcs-82NvciUyBs2JlbP-178" value="&amp;lt;&amp;lt;extend&amp;gt;&amp;gt;" style="html=1;verticalAlign=bottom;labelBackgroundColor=none;endArrow=open;endFill=0;dashed=1;rounded=0;entryX=0.654;entryY=1.019;entryDx=0;entryDy=0;entryPerimeter=0;" parent="1" source="GZcs-82NvciUyBs2JlbP-175" target="GZcs-82NvciUyBs2JlbP-173" edge="1">
          <mxGeometry width="160" relative="1" as="geometry">
            <mxPoint x="332" y="1140" as="sourcePoint" />
            <mxPoint x="145" y="1081" as="targetPoint" />
          </mxGeometry>
        </mxCell>
        <mxCell id="GZcs-82NvciUyBs2JlbP-179" value="Ödeme Başarısız" style="ellipse;whiteSpace=wrap;html=1;" parent="1" vertex="1">
          <mxGeometry x="437" y="920" width="116" height="60" as="geometry" />
        </mxCell>
        <mxCell id="GZcs-82NvciUyBs2JlbP-181" value="&amp;lt;&amp;lt;extend&amp;gt;&amp;gt;" style="html=1;verticalAlign=bottom;labelBackgroundColor=none;endArrow=open;endFill=0;dashed=1;rounded=0;entryX=1;entryY=0.5;entryDx=0;entryDy=0;exitX=0;exitY=0.5;exitDx=0;exitDy=0;" parent="1" source="GZcs-82NvciUyBs2JlbP-179" target="GZcs-82NvciUyBs2JlbP-173" edge="1">
          <mxGeometry width="160" relative="1" as="geometry">
            <mxPoint x="312" y="1071" as="sourcePoint" />
            <mxPoint x="212" y="1069" as="targetPoint" />
          </mxGeometry>
        </mxCell>
        <mxCell id="GZcs-82NvciUyBs2JlbP-182" value="&amp;lt;&amp;lt;extend&amp;gt;&amp;gt;" style="html=1;verticalAlign=bottom;labelBackgroundColor=none;endArrow=open;endFill=0;dashed=1;rounded=0;entryX=1;entryY=0;entryDx=0;entryDy=0;" parent="1" source="GZcs-82NvciUyBs2JlbP-180" target="GZcs-82NvciUyBs2JlbP-173" edge="1">
          <mxGeometry width="160" relative="1" as="geometry">
            <mxPoint x="319" y="990" as="sourcePoint" />
            <mxPoint x="222" y="1079" as="targetPoint" />
          </mxGeometry>
        </mxCell>
        <mxCell id="GZcs-82NvciUyBs2JlbP-198" value="&lt;b&gt;UC6- Reklamsız Müzik/Podcast Dinleme&lt;/b&gt;" style="ellipse;whiteSpace=wrap;html=1;strokeWidth=3;" parent="1" vertex="1">
          <mxGeometry x="82" y="1190" width="140" height="70" as="geometry" />
        </mxCell>
        <mxCell id="GZcs-82NvciUyBs2JlbP-199" value="UC6.1&lt;div&gt;320kbps Ses Kalitesi&amp;nbsp;&lt;/div&gt;" style="ellipse;whiteSpace=wrap;html=1;" parent="1" vertex="1">
          <mxGeometry x="378" y="1270" width="107" height="50" as="geometry" />
        </mxCell>
        <mxCell id="GZcs-82NvciUyBs2JlbP-202" value="&amp;lt;&amp;lt;extend&amp;gt;&amp;gt;" style="html=1;verticalAlign=bottom;labelBackgroundColor=none;endArrow=open;endFill=0;dashed=1;rounded=0;exitX=0.017;exitY=0.392;exitDx=0;exitDy=0;exitPerimeter=0;" parent="1" source="GZcs-82NvciUyBs2JlbP-199" edge="1">
          <mxGeometry x="-0.2777" y="4" width="160" relative="1" as="geometry">
            <mxPoint x="372" y="1325" as="sourcePoint" />
            <mxPoint x="224" y="1225" as="targetPoint" />
            <mxPoint as="offset" />
          </mxGeometry>
        </mxCell>
        <mxCell id="GZcs-82NvciUyBs2JlbP-203" value="&amp;lt;&amp;lt;extend&amp;gt;&amp;gt;" style="html=1;verticalAlign=bottom;labelBackgroundColor=none;endArrow=open;endFill=0;dashed=1;rounded=0;exitX=0;exitY=0.5;exitDx=0;exitDy=0;entryX=1;entryY=0.5;entryDx=0;entryDy=0;" parent="1" source="GZcs-82NvciUyBs2JlbP-200" target="GZcs-82NvciUyBs2JlbP-198" edge="1">
          <mxGeometry width="160" relative="1" as="geometry">
            <mxPoint x="229" y="1485" as="sourcePoint" />
            <mxPoint x="392" y="1505" as="targetPoint" />
          </mxGeometry>
        </mxCell>
        <mxCell id="GZcs-82NvciUyBs2JlbP-205" value="UC6.3&lt;div&gt;İstediğin Şarkıyı Çalma&lt;/div&gt;" style="ellipse;whiteSpace=wrap;html=1;" parent="1" vertex="1">
          <mxGeometry x="362" y="1350" width="103" height="50" as="geometry" />
        </mxCell>
        <mxCell id="GZcs-82NvciUyBs2JlbP-206" value="UC6.4&lt;div&gt;&lt;span style=&quot;background-color: transparent; color: light-dark(rgb(0, 0, 0), rgb(255, 255, 255));&quot;&gt;Sınırsız Müzik&lt;/span&gt;&lt;/div&gt;&lt;div&gt;&lt;span style=&quot;background-color: transparent; color: light-dark(rgb(0, 0, 0), rgb(255, 255, 255));&quot;&gt;Atlama&lt;/span&gt;&lt;/div&gt;" style="ellipse;whiteSpace=wrap;html=1;" parent="1" vertex="1">
          <mxGeometry x="481" y="1350" width="106" height="50" as="geometry" />
        </mxCell>
        <mxCell id="GZcs-82NvciUyBs2JlbP-207" value="&amp;lt;&amp;lt;extend&amp;gt;&amp;gt;" style="html=1;verticalAlign=bottom;labelBackgroundColor=none;endArrow=open;endFill=0;dashed=1;rounded=0;entryX=0.983;entryY=0.634;entryDx=0;entryDy=0;entryPerimeter=0;exitX=0.057;exitY=0.3;exitDx=0;exitDy=0;exitPerimeter=0;" parent="1" source="GZcs-82NvciUyBs2JlbP-206" target="GZcs-82NvciUyBs2JlbP-198" edge="1">
          <mxGeometry x="-0.5335" y="6" width="160" relative="1" as="geometry">
            <mxPoint x="229" y="1485" as="sourcePoint" />
            <mxPoint x="293" y="1485" as="targetPoint" />
            <mxPoint as="offset" />
          </mxGeometry>
        </mxCell>
        <mxCell id="GZcs-82NvciUyBs2JlbP-208" value="&amp;lt;&amp;lt;extend&amp;gt;&amp;gt;" style="html=1;verticalAlign=bottom;labelBackgroundColor=none;endArrow=open;endFill=0;dashed=1;rounded=0;exitX=0;exitY=0;exitDx=0;exitDy=0;entryX=0.996;entryY=0.713;entryDx=0;entryDy=0;entryPerimeter=0;" parent="1" source="GZcs-82NvciUyBs2JlbP-205" target="GZcs-82NvciUyBs2JlbP-198" edge="1">
          <mxGeometry x="0.1368" y="7" width="160" relative="1" as="geometry">
            <mxPoint x="246" y="1569" as="sourcePoint" />
            <mxPoint x="307" y="1508" as="targetPoint" />
            <mxPoint x="-1" as="offset" />
          </mxGeometry>
        </mxCell>
        <mxCell id="GZcs-82NvciUyBs2JlbP-209" value="UC6.5&lt;div&gt;Şarkı Sözü Görüntüleme&lt;/div&gt;" style="ellipse;whiteSpace=wrap;html=1;" parent="1" vertex="1">
          <mxGeometry x="62" y="1370" width="106" height="50" as="geometry" />
        </mxCell>
        <mxCell id="GZcs-82NvciUyBs2JlbP-210" value="&amp;lt;&amp;lt;extend&amp;gt;&amp;gt;" style="html=1;verticalAlign=bottom;labelBackgroundColor=none;endArrow=open;endFill=0;dashed=1;rounded=0;exitX=0.5;exitY=0;exitDx=0;exitDy=0;entryX=0.414;entryY=1.014;entryDx=0;entryDy=0;entryPerimeter=0;" parent="1" source="GZcs-82NvciUyBs2JlbP-209" target="GZcs-82NvciUyBs2JlbP-198" edge="1">
          <mxGeometry width="160" relative="1" as="geometry">
            <mxPoint x="443" y="1470" as="sourcePoint" />
            <mxPoint x="520" y="1489" as="targetPoint" />
          </mxGeometry>
        </mxCell>
        <mxCell id="GZcs-82NvciUyBs2JlbP-211" value="UC6.6&lt;div&gt;Arkaplanda Müzik&lt;/div&gt;&lt;div&gt;Dinleme&lt;/div&gt;" style="ellipse;whiteSpace=wrap;html=1;" parent="1" vertex="1">
          <mxGeometry x="156" y="1330" width="106" height="50" as="geometry" />
        </mxCell>
        <mxCell id="GZcs-82NvciUyBs2JlbP-212" value="&amp;lt;&amp;lt;extend&amp;gt;&amp;gt;" style="html=1;verticalAlign=bottom;labelBackgroundColor=none;endArrow=open;endFill=0;dashed=1;rounded=0;exitX=0;exitY=0;exitDx=0;exitDy=0;entryX=0.5;entryY=1;entryDx=0;entryDy=0;" parent="1" source="GZcs-82NvciUyBs2JlbP-211" target="GZcs-82NvciUyBs2JlbP-198" edge="1">
          <mxGeometry width="160" relative="1" as="geometry">
            <mxPoint x="503" y="1450" as="sourcePoint" />
            <mxPoint x="432" y="1478" as="targetPoint" />
          </mxGeometry>
        </mxCell>
        <mxCell id="GZcs-82NvciUyBs2JlbP-215" value="&lt;b&gt;UC7- Reklamlı Müzik/Podcast Dinleme&lt;/b&gt;" style="ellipse;whiteSpace=wrap;html=1;strokeWidth=3;" parent="1" vertex="1">
          <mxGeometry x="82" y="1485" width="140" height="70" as="geometry" />
        </mxCell>
        <mxCell id="GZcs-82NvciUyBs2JlbP-216" value="UC7.1&lt;div&gt;160kbps Ses Kalitesi&amp;nbsp;&lt;/div&gt;" style="ellipse;whiteSpace=wrap;html=1;" parent="1" vertex="1">
          <mxGeometry x="345" y="1560" width="116" height="60" as="geometry" />
        </mxCell>
        <mxCell id="GZcs-82NvciUyBs2JlbP-217" value="UC7.2&lt;div&gt;Sınırlı Müzik Atlama&lt;/div&gt;" style="ellipse;whiteSpace=wrap;html=1;" parent="1" vertex="1">
          <mxGeometry x="311" y="1485" width="116" height="60" as="geometry" />
        </mxCell>
        <mxCell id="GZcs-82NvciUyBs2JlbP-218" value="UC7.3&lt;div&gt;Rastgele Müzik Çalma&lt;/div&gt;" style="ellipse;whiteSpace=wrap;html=1;" parent="1" vertex="1">
          <mxGeometry x="216" y="1380" width="116" height="60" as="geometry" />
        </mxCell>
        <mxCell id="GZcs-82NvciUyBs2JlbP-219" value="&amp;lt;&amp;lt;include&amp;gt;&amp;gt;" style="html=1;verticalAlign=bottom;labelBackgroundColor=none;endArrow=open;endFill=0;dashed=1;rounded=0;entryX=0.388;entryY=1;entryDx=0;entryDy=0;entryPerimeter=0;exitX=0.786;exitY=0.065;exitDx=0;exitDy=0;exitPerimeter=0;" parent="1" source="GZcs-82NvciUyBs2JlbP-215" target="GZcs-82NvciUyBs2JlbP-218" edge="1">
          <mxGeometry x="0.0054" width="160" relative="1" as="geometry">
            <mxPoint x="192" y="1540" as="sourcePoint" />
            <mxPoint x="304" y="1530" as="targetPoint" />
            <mxPoint as="offset" />
          </mxGeometry>
        </mxCell>
        <mxCell id="GZcs-82NvciUyBs2JlbP-220" value="&amp;lt;&amp;lt;extend&amp;gt;&amp;gt;" style="html=1;verticalAlign=bottom;labelBackgroundColor=none;endArrow=open;endFill=0;dashed=1;rounded=0;exitX=0;exitY=0.5;exitDx=0;exitDy=0;entryX=1;entryY=0.5;entryDx=0;entryDy=0;" parent="1" source="GZcs-82NvciUyBs2JlbP-217" target="GZcs-82NvciUyBs2JlbP-215" edge="1">
          <mxGeometry width="160" relative="1" as="geometry">
            <mxPoint x="318" y="1687" as="sourcePoint" />
            <mxPoint x="222" y="1582" as="targetPoint" />
          </mxGeometry>
        </mxCell>
        <mxCell id="GZcs-82NvciUyBs2JlbP-221" value="&amp;lt;&amp;lt;extend&amp;gt;&amp;gt;" style="html=1;verticalAlign=bottom;labelBackgroundColor=none;endArrow=open;endFill=0;dashed=1;rounded=0;exitX=0.078;exitY=0.242;exitDx=0;exitDy=0;entryX=0.905;entryY=0.803;entryDx=0;entryDy=0;entryPerimeter=0;exitPerimeter=0;" parent="1" source="GZcs-82NvciUyBs2JlbP-216" target="GZcs-82NvciUyBs2JlbP-215" edge="1">
          <mxGeometry width="160" relative="1" as="geometry">
            <mxPoint x="297" y="1694" as="sourcePoint" />
            <mxPoint x="370" y="1620" as="targetPoint" />
          </mxGeometry>
        </mxCell>
        <mxCell id="GZcs-82NvciUyBs2JlbP-223" value="&amp;lt;&amp;lt;extend&amp;gt;&amp;gt;" style="html=1;verticalAlign=bottom;labelBackgroundColor=none;endArrow=open;endFill=0;dashed=1;rounded=0;exitX=0.293;exitY=0.973;exitDx=0;exitDy=0;entryX=0.726;entryY=0.076;entryDx=0;entryDy=0;entryPerimeter=0;exitPerimeter=0;" parent="1" source="GZcs-82NvciUyBs2JlbP-211" target="GZcs-82NvciUyBs2JlbP-215" edge="1">
          <mxGeometry width="160" relative="1" as="geometry">
            <mxPoint x="233" y="1397" as="sourcePoint" />
            <mxPoint x="162" y="1330" as="targetPoint" />
          </mxGeometry>
        </mxCell>
        <mxCell id="GZcs-82NvciUyBs2JlbP-224" value="&amp;lt;&amp;lt;extend&amp;gt;&amp;gt;" style="html=1;verticalAlign=bottom;labelBackgroundColor=none;endArrow=open;endFill=0;dashed=1;rounded=0;exitX=0.5;exitY=1;exitDx=0;exitDy=0;entryX=0.5;entryY=0;entryDx=0;entryDy=0;" parent="1" source="GZcs-82NvciUyBs2JlbP-209" target="GZcs-82NvciUyBs2JlbP-215" edge="1">
          <mxGeometry width="160" relative="1" as="geometry">
            <mxPoint x="248" y="1439" as="sourcePoint" />
            <mxPoint x="191" y="1505" as="targetPoint" />
          </mxGeometry>
        </mxCell>
        <mxCell id="GZcs-82NvciUyBs2JlbP-225" value="&lt;b&gt;UC9- Müzik/Podcast&lt;/b&gt;&lt;div&gt;&lt;b&gt;Favorileme&lt;/b&gt;&lt;/div&gt;" style="ellipse;whiteSpace=wrap;html=1;strokeWidth=3;" parent="1" vertex="1">
          <mxGeometry x="345" y="1410" width="140" height="70" as="geometry" />
        </mxCell>
        <mxCell id="GZcs-82NvciUyBs2JlbP-226" value="UC9.1&lt;div&gt;Favorilerden Çıkarma&lt;/div&gt;" style="ellipse;whiteSpace=wrap;html=1;" parent="1" vertex="1">
          <mxGeometry x="542" y="1420" width="116" height="60" as="geometry" />
        </mxCell>
        <mxCell id="GZcs-82NvciUyBs2JlbP-227" value="&amp;lt;&amp;lt;extend&amp;gt;&amp;gt;" style="html=1;verticalAlign=bottom;labelBackgroundColor=none;endArrow=open;endFill=0;dashed=1;rounded=0;entryX=1;entryY=0.5;entryDx=0;entryDy=0;" parent="1" source="GZcs-82NvciUyBs2JlbP-226" target="GZcs-82NvciUyBs2JlbP-225" edge="1">
          <mxGeometry width="160" relative="1" as="geometry">
            <mxPoint x="667" y="1624.5" as="sourcePoint" />
            <mxPoint x="608" y="1575.5" as="targetPoint" />
          </mxGeometry>
        </mxCell>
        <mxCell id="GZcs-82NvciUyBs2JlbP-228" value="&amp;lt;&amp;lt;extend&amp;gt;&amp;gt;" style="html=1;verticalAlign=bottom;labelBackgroundColor=none;endArrow=open;endFill=0;dashed=1;rounded=0;entryX=0.93;entryY=0.727;entryDx=0;entryDy=0;entryPerimeter=0;exitX=0;exitY=0;exitDx=0;exitDy=0;" parent="1" source="GZcs-82NvciUyBs2JlbP-225" target="GZcs-82NvciUyBs2JlbP-198" edge="1">
          <mxGeometry x="0.1368" y="7" width="160" relative="1" as="geometry">
            <mxPoint x="375" y="1433.5" as="sourcePoint" />
            <mxPoint x="219" y="1376.5" as="targetPoint" />
            <mxPoint x="-1" as="offset" />
          </mxGeometry>
        </mxCell>
        <mxCell id="GZcs-82NvciUyBs2JlbP-229" value="&amp;lt;&amp;lt;extend&amp;gt;&amp;gt;" style="html=1;verticalAlign=bottom;labelBackgroundColor=none;endArrow=open;endFill=0;dashed=1;rounded=0;entryX=1;entryY=0;entryDx=0;entryDy=0;exitX=0;exitY=0.5;exitDx=0;exitDy=0;" parent="1" source="GZcs-82NvciUyBs2JlbP-225" target="GZcs-82NvciUyBs2JlbP-215" edge="1">
          <mxGeometry width="160" relative="1" as="geometry">
            <mxPoint x="352" y="1460" as="sourcePoint" />
            <mxPoint x="502" y="1465" as="targetPoint" />
          </mxGeometry>
        </mxCell>
        <mxCell id="GZcs-82NvciUyBs2JlbP-230" value="&lt;b&gt;UC13- Kişisel Müzik Önerisi&amp;nbsp;&lt;br&gt;&lt;/b&gt;" style="ellipse;whiteSpace=wrap;html=1;strokeWidth=3;" parent="1" vertex="1">
          <mxGeometry x="82" y="1090" width="140" height="70" as="geometry" />
        </mxCell>
        <mxCell id="GZcs-82NvciUyBs2JlbP-231" value="&amp;lt;&amp;lt;include&amp;gt;&amp;gt;" style="html=1;verticalAlign=bottom;labelBackgroundColor=none;endArrow=open;endFill=0;dashed=1;rounded=0;exitX=0;exitY=0.5;exitDx=0;exitDy=0;entryX=0.052;entryY=0.212;entryDx=0;entryDy=0;entryPerimeter=0;" parent="1" target="GZcs-82NvciUyBs2JlbP-215" edge="1">
          <mxGeometry x="0.0054" width="160" relative="1" as="geometry">
            <mxPoint x="78.99999999999409" y="1120.0000000000002" as="sourcePoint" />
            <mxPoint x="47" y="1582.5" as="targetPoint" />
            <mxPoint as="offset" />
            <Array as="points">
              <mxPoint x="50" y="1120" />
              <mxPoint x="50" y="1500" />
            </Array>
          </mxGeometry>
        </mxCell>
        <mxCell id="GZcs-82NvciUyBs2JlbP-233" value="&lt;b&gt;UC8- Çalma Listesi Oluşturma&lt;/b&gt;" style="ellipse;whiteSpace=wrap;html=1;strokeWidth=3;" parent="1" vertex="1">
          <mxGeometry x="596" y="855" width="140" height="70" as="geometry" />
        </mxCell>
        <mxCell id="GZcs-82NvciUyBs2JlbP-234" value="UC8.1&lt;div&gt;Müzik Ekleme&lt;/div&gt;" style="ellipse;whiteSpace=wrap;html=1;" parent="1" vertex="1">
          <mxGeometry x="798" y="970" width="116" height="60" as="geometry" />
        </mxCell>
        <mxCell id="GZcs-82NvciUyBs2JlbP-235" value="UC8.2&lt;div&gt;Çalma Listesi Kapak Fotoğrafı Ekleme&lt;/div&gt;" style="ellipse;whiteSpace=wrap;html=1;" parent="1" vertex="1">
          <mxGeometry x="970" y="960" width="116" height="60" as="geometry" />
        </mxCell>
        <mxCell id="GZcs-82NvciUyBs2JlbP-236" value="UC8.3&lt;div&gt;Çalma Listesini&lt;/div&gt;&lt;div&gt;Paylaşma&lt;/div&gt;" style="ellipse;whiteSpace=wrap;html=1;" parent="1" vertex="1">
          <mxGeometry x="884" y="900" width="116" height="60" as="geometry" />
        </mxCell>
        <mxCell id="GZcs-82NvciUyBs2JlbP-237" value="UC8.4&lt;div&gt;Çalma Listesini Gizleme&lt;/div&gt;" style="ellipse;whiteSpace=wrap;html=1;" parent="1" vertex="1">
          <mxGeometry x="1000" y="850" width="116" height="60" as="geometry" />
        </mxCell>
        <mxCell id="GZcs-82NvciUyBs2JlbP-238" value="&amp;lt;&amp;lt;include&amp;gt;&amp;gt;" style="html=1;verticalAlign=bottom;labelBackgroundColor=none;endArrow=open;endFill=0;dashed=1;rounded=0;entryX=0;entryY=0;entryDx=0;entryDy=0;exitX=0.739;exitY=0.95;exitDx=0;exitDy=0;exitPerimeter=0;" parent="1" source="GZcs-82NvciUyBs2JlbP-233" target="GZcs-82NvciUyBs2JlbP-234" edge="1">
          <mxGeometry x="0.0054" width="160" relative="1" as="geometry">
            <mxPoint x="668" y="925" as="sourcePoint" />
            <mxPoint x="880" y="1000" as="targetPoint" />
            <mxPoint as="offset" />
          </mxGeometry>
        </mxCell>
        <mxCell id="GZcs-82NvciUyBs2JlbP-239" value="&amp;lt;&amp;lt;extend&amp;gt;&amp;gt;" style="html=1;verticalAlign=bottom;labelBackgroundColor=none;endArrow=open;endFill=0;dashed=1;rounded=0;entryX=1;entryY=1;entryDx=0;entryDy=0;" parent="1" source="GZcs-82NvciUyBs2JlbP-235" target="GZcs-82NvciUyBs2JlbP-233" edge="1">
          <mxGeometry width="160" relative="1" as="geometry">
            <mxPoint x="618" y="1290" as="sourcePoint" />
            <mxPoint x="559" y="1233" as="targetPoint" />
          </mxGeometry>
        </mxCell>
        <mxCell id="GZcs-82NvciUyBs2JlbP-240" value="&amp;lt;&amp;lt;extend&amp;gt;&amp;gt;" style="html=1;verticalAlign=bottom;labelBackgroundColor=none;endArrow=open;endFill=0;dashed=1;rounded=0;entryX=0.959;entryY=0.748;entryDx=0;entryDy=0;entryPerimeter=0;" parent="1" source="GZcs-82NvciUyBs2JlbP-236" target="GZcs-82NvciUyBs2JlbP-233" edge="1">
          <mxGeometry width="160" relative="1" as="geometry">
            <mxPoint x="600" y="1301" as="sourcePoint" />
            <mxPoint x="623" y="1259" as="targetPoint" />
          </mxGeometry>
        </mxCell>
        <mxCell id="GZcs-82NvciUyBs2JlbP-241" value="&amp;lt;&amp;lt;extend&amp;gt;&amp;gt;" style="html=1;verticalAlign=bottom;labelBackgroundColor=none;endArrow=open;endFill=0;dashed=1;rounded=0;exitX=0;exitY=0.5;exitDx=0;exitDy=0;entryX=0.989;entryY=0.629;entryDx=0;entryDy=0;entryPerimeter=0;" parent="1" source="GZcs-82NvciUyBs2JlbP-237" target="GZcs-82NvciUyBs2JlbP-233" edge="1">
          <mxGeometry width="160" relative="1" as="geometry">
            <mxPoint x="732" y="1309" as="sourcePoint" />
            <mxPoint x="684" y="1259" as="targetPoint" />
          </mxGeometry>
        </mxCell>
        <mxCell id="GZcs-82NvciUyBs2JlbP-242" value="UC8.6&lt;div&gt;Çalma Silme&lt;/div&gt;" style="ellipse;whiteSpace=wrap;html=1;" parent="1" vertex="1">
          <mxGeometry x="770" y="710" width="116" height="60" as="geometry" />
        </mxCell>
        <mxCell id="GZcs-82NvciUyBs2JlbP-243" value="UC8.5&lt;div&gt;Şarkı Sırası Değiştirme&lt;/div&gt;" style="ellipse;whiteSpace=wrap;html=1;" parent="1" vertex="1">
          <mxGeometry x="901" y="680" width="116" height="60" as="geometry" />
        </mxCell>
        <mxCell id="GZcs-82NvciUyBs2JlbP-244" value="&amp;lt;&amp;lt;extend&amp;gt;&amp;gt;" style="html=1;verticalAlign=bottom;labelBackgroundColor=none;endArrow=open;endFill=0;dashed=1;rounded=0;exitX=0;exitY=1;exitDx=0;exitDy=0;entryX=1;entryY=0;entryDx=0;entryDy=0;" parent="1" source="GZcs-82NvciUyBs2JlbP-242" target="GZcs-82NvciUyBs2JlbP-233" edge="1">
          <mxGeometry width="160" relative="1" as="geometry">
            <mxPoint x="773" y="1080" as="sourcePoint" />
            <mxPoint x="827" y="980" as="targetPoint" />
          </mxGeometry>
        </mxCell>
        <mxCell id="GZcs-82NvciUyBs2JlbP-245" value="&amp;lt;&amp;lt;extend&amp;gt;&amp;gt;" style="html=1;verticalAlign=bottom;labelBackgroundColor=none;endArrow=open;endFill=0;dashed=1;rounded=0;exitX=0;exitY=1;exitDx=0;exitDy=0;entryX=0.987;entryY=0.389;entryDx=0;entryDy=0;entryPerimeter=0;" parent="1" source="GZcs-82NvciUyBs2JlbP-243" target="GZcs-82NvciUyBs2JlbP-233" edge="1">
          <mxGeometry width="160" relative="1" as="geometry">
            <mxPoint x="773" y="1080" as="sourcePoint" />
            <mxPoint x="827" y="980" as="targetPoint" />
          </mxGeometry>
        </mxCell>
        <mxCell id="GZcs-82NvciUyBs2JlbP-246" value="UC8.7&lt;div&gt;Blend Oluşturma&lt;/div&gt;" style="ellipse;whiteSpace=wrap;html=1;" parent="1" vertex="1">
          <mxGeometry x="832" y="810" width="116" height="60" as="geometry" />
        </mxCell>
        <mxCell id="GZcs-82NvciUyBs2JlbP-247" value="&amp;lt;&amp;lt;extend&amp;gt;&amp;gt;" style="html=1;verticalAlign=bottom;labelBackgroundColor=none;endArrow=open;endFill=0;dashed=1;rounded=0;exitX=0.039;exitY=0.742;exitDx=0;exitDy=0;entryX=1;entryY=0.5;entryDx=0;entryDy=0;exitPerimeter=0;" parent="1" source="GZcs-82NvciUyBs2JlbP-246" target="GZcs-82NvciUyBs2JlbP-233" edge="1">
          <mxGeometry width="160" relative="1" as="geometry">
            <mxPoint x="773" y="1080" as="sourcePoint" />
            <mxPoint x="827" y="980" as="targetPoint" />
          </mxGeometry>
        </mxCell>
        <mxCell id="GZcs-82NvciUyBs2JlbP-248" value="UC8.7.1&lt;div&gt;Kullanıcı Davet Etmek&lt;/div&gt;" style="ellipse;whiteSpace=wrap;html=1;" parent="1" vertex="1">
          <mxGeometry x="970" y="740" width="116" height="60" as="geometry" />
        </mxCell>
        <mxCell id="GZcs-82NvciUyBs2JlbP-249" value="&amp;lt;&amp;lt;include&amp;gt;&amp;gt;" style="html=1;verticalAlign=bottom;labelBackgroundColor=none;endArrow=open;endFill=0;dashed=1;rounded=0;entryX=0.086;entryY=0.667;entryDx=0;entryDy=0;exitX=0.724;exitY=0.025;exitDx=0;exitDy=0;exitPerimeter=0;entryPerimeter=0;" parent="1" source="GZcs-82NvciUyBs2JlbP-246" target="GZcs-82NvciUyBs2JlbP-248" edge="1">
          <mxGeometry x="0.0054" width="160" relative="1" as="geometry">
            <mxPoint x="897" y="1370" as="sourcePoint" />
            <mxPoint x="805" y="1355" as="targetPoint" />
            <mxPoint as="offset" />
          </mxGeometry>
        </mxCell>
        <mxCell id="GZcs-82NvciUyBs2JlbP-252" value="&lt;b&gt;UC10- Müzik/Podcast, Kullanıcı, Sanatçı&lt;/b&gt;&lt;div&gt;&lt;b&gt;Arama&lt;br&gt;&lt;/b&gt;&lt;/div&gt;" style="ellipse;whiteSpace=wrap;html=1;strokeWidth=3;" parent="1" vertex="1">
          <mxGeometry x="592" y="360" width="154" height="80" as="geometry" />
        </mxCell>
        <mxCell id="GZcs-82NvciUyBs2JlbP-253" value="&lt;b&gt;UC14- Geçmiş Arama&lt;/b&gt;&lt;div&gt;&lt;b&gt;Görüntüleme&amp;nbsp;&amp;nbsp;&lt;br&gt;&lt;/b&gt;&lt;/div&gt;" style="ellipse;whiteSpace=wrap;html=1;strokeWidth=3;" parent="1" vertex="1">
          <mxGeometry x="608" y="170" width="140" height="70" as="geometry" />
        </mxCell>
        <mxCell id="GZcs-82NvciUyBs2JlbP-254" value="&lt;b&gt;UC12- Kullanıcı Takip Etme&lt;br&gt;&lt;/b&gt;" style="ellipse;whiteSpace=wrap;html=1;strokeWidth=3;" parent="1" vertex="1">
          <mxGeometry x="770" y="170" width="140" height="70" as="geometry" />
        </mxCell>
        <mxCell id="GZcs-82NvciUyBs2JlbP-255" value="&amp;lt;&amp;lt;include&amp;gt;&amp;gt;" style="html=1;verticalAlign=bottom;labelBackgroundColor=none;endArrow=open;endFill=0;dashed=1;rounded=0;exitX=0.5;exitY=0;exitDx=0;exitDy=0;entryX=0.5;entryY=1;entryDx=0;entryDy=0;" parent="1" source="GZcs-82NvciUyBs2JlbP-252" target="GZcs-82NvciUyBs2JlbP-253" edge="1">
          <mxGeometry width="160" relative="1" as="geometry">
            <mxPoint x="412" y="300" as="sourcePoint" />
            <mxPoint x="510" y="300" as="targetPoint" />
          </mxGeometry>
        </mxCell>
        <mxCell id="GZcs-82NvciUyBs2JlbP-256" value="&amp;lt;&amp;lt;include&amp;gt;&amp;gt;" style="html=1;verticalAlign=bottom;labelBackgroundColor=none;endArrow=open;endFill=0;dashed=1;rounded=0;exitX=0.788;exitY=0.085;exitDx=0;exitDy=0;entryX=0.5;entryY=1;entryDx=0;entryDy=0;exitPerimeter=0;" parent="1" source="GZcs-82NvciUyBs2JlbP-252" target="GZcs-82NvciUyBs2JlbP-254" edge="1">
          <mxGeometry width="160" relative="1" as="geometry">
            <mxPoint x="679" y="370" as="sourcePoint" />
            <mxPoint x="688" y="250" as="targetPoint" />
          </mxGeometry>
        </mxCell>
        <mxCell id="GZcs-82NvciUyBs2JlbP-257" value="UC12.1&lt;div&gt;Takibi Bırakma&lt;/div&gt;" style="ellipse;whiteSpace=wrap;html=1;" parent="1" vertex="1">
          <mxGeometry x="870" y="10" width="116" height="60" as="geometry" />
        </mxCell>
        <mxCell id="GZcs-82NvciUyBs2JlbP-258" value="&amp;lt;&amp;lt;extend&amp;gt;&amp;gt;" style="html=1;verticalAlign=bottom;labelBackgroundColor=none;endArrow=open;endFill=0;dashed=1;rounded=0;exitX=0.5;exitY=1;exitDx=0;exitDy=0;entryX=1;entryY=0;entryDx=0;entryDy=0;" parent="1" source="GZcs-82NvciUyBs2JlbP-257" target="GZcs-82NvciUyBs2JlbP-254" edge="1">
          <mxGeometry width="160" relative="1" as="geometry">
            <mxPoint x="1902" y="620" as="sourcePoint" />
            <mxPoint x="1530" y="665" as="targetPoint" />
          </mxGeometry>
        </mxCell>
        <mxCell id="GZcs-82NvciUyBs2JlbP-259" value="UC12.2&lt;div&gt;Önerilen Kullanıcılar&lt;/div&gt;" style="ellipse;whiteSpace=wrap;html=1;" parent="1" vertex="1">
          <mxGeometry x="716" y="10" width="116" height="60" as="geometry" />
        </mxCell>
        <mxCell id="GZcs-82NvciUyBs2JlbP-260" value="&amp;lt;&amp;lt;extend&amp;gt;&amp;gt;" style="html=1;verticalAlign=bottom;labelBackgroundColor=none;endArrow=open;endFill=0;dashed=1;rounded=0;exitX=0.5;exitY=1;exitDx=0;exitDy=0;entryX=0.283;entryY=0.025;entryDx=0;entryDy=0;entryPerimeter=0;" parent="1" source="GZcs-82NvciUyBs2JlbP-259" target="GZcs-82NvciUyBs2JlbP-254" edge="1">
          <mxGeometry width="160" relative="1" as="geometry">
            <mxPoint x="1648" y="930" as="sourcePoint" />
            <mxPoint x="1270" y="320" as="targetPoint" />
          </mxGeometry>
        </mxCell>
        <mxCell id="GZcs-82NvciUyBs2JlbP-269" value="&amp;lt;&amp;lt;include&amp;gt;&amp;gt;" style="html=1;verticalAlign=bottom;labelBackgroundColor=none;endArrow=open;endFill=0;dashed=1;rounded=0;exitX=0;exitY=0.5;exitDx=0;exitDy=0;" parent="1" edge="1">
          <mxGeometry x="0.0054" width="160" relative="1" as="geometry">
            <mxPoint x="76" y="935" as="sourcePoint" />
            <mxPoint x="76" y="530" as="targetPoint" />
            <mxPoint as="offset" />
            <Array as="points">
              <mxPoint x="47" y="935" />
              <mxPoint x="47" y="800" />
              <mxPoint x="47" y="530" />
            </Array>
          </mxGeometry>
        </mxCell>
        <mxCell id="GZcs-82NvciUyBs2JlbP-270" value="Premium Kullanıcı" style="shape=umlActor;verticalLabelPosition=bottom;verticalAlign=top;html=1;outlineConnect=0;" parent="1" vertex="1">
          <mxGeometry x="-180" y="840" width="70" height="150" as="geometry" />
        </mxCell>
        <mxCell id="GZcs-82NvciUyBs2JlbP-271" value="Free Kullanıcı" style="shape=umlActor;verticalLabelPosition=bottom;verticalAlign=top;html=1;outlineConnect=0;" parent="1" vertex="1">
          <mxGeometry x="-370" y="840" width="70" height="150" as="geometry" />
        </mxCell>
        <mxCell id="GZcs-82NvciUyBs2JlbP-273" value="Dinleyici" style="shape=umlActor;verticalLabelPosition=bottom;verticalAlign=top;html=1;outlineConnect=0;" parent="1" vertex="1">
          <mxGeometry x="-270" y="650" width="70" height="150" as="geometry" />
        </mxCell>
        <mxCell id="GZcs-82NvciUyBs2JlbP-275" value="&amp;lt;&amp;lt;include&amp;gt;&amp;gt;" style="html=1;verticalAlign=bottom;labelBackgroundColor=none;endArrow=open;endFill=0;dashed=1;rounded=0;entryX=0.5;entryY=0;entryDx=0;entryDy=0;exitX=0.5;exitY=1;exitDx=0;exitDy=0;" parent="1" source="GZcs-82NvciUyBs2JlbP-230" target="GZcs-82NvciUyBs2JlbP-198" edge="1">
          <mxGeometry x="0.2" width="160" relative="1" as="geometry">
            <mxPoint x="275" y="1190" as="sourcePoint" />
            <mxPoint x="345" y="1147" as="targetPoint" />
            <mxPoint as="offset" />
          </mxGeometry>
        </mxCell>
        <mxCell id="GZcs-82NvciUyBs2JlbP-517" value="" style="swimlane;startSize=0;" parent="1" vertex="1">
          <mxGeometry width="1570" height="1650" as="geometry" />
        </mxCell>
        <mxCell id="GZcs-82NvciUyBs2JlbP-261" value="&lt;b&gt;UC11- JAM Başlatma&lt;br&gt;&lt;/b&gt;" style="ellipse;whiteSpace=wrap;html=1;strokeWidth=3;" parent="GZcs-82NvciUyBs2JlbP-517" vertex="1">
          <mxGeometry x="216" y="1030" width="140" height="70" as="geometry" />
        </mxCell>
        <mxCell id="GZcs-82NvciUyBs2JlbP-266" value="UC11.3&lt;div&gt;JAM Sonlandırma&lt;/div&gt;" style="ellipse;whiteSpace=wrap;html=1;" parent="GZcs-82NvciUyBs2JlbP-517" vertex="1">
          <mxGeometry x="230" y="1160" width="116" height="60" as="geometry" />
        </mxCell>
        <mxCell id="GZcs-82NvciUyBs2JlbP-267" value="&amp;lt;&amp;lt;extend&amp;gt;&amp;gt;" style="html=1;verticalAlign=bottom;labelBackgroundColor=none;endArrow=open;endFill=0;dashed=1;rounded=0;exitX=0.5;exitY=0;exitDx=0;exitDy=0;entryX=0.5;entryY=1;entryDx=0;entryDy=0;" parent="GZcs-82NvciUyBs2JlbP-517" source="GZcs-82NvciUyBs2JlbP-266" target="GZcs-82NvciUyBs2JlbP-261" edge="1">
          <mxGeometry width="160" relative="1" as="geometry">
            <mxPoint x="743" y="786" as="sourcePoint" />
            <mxPoint x="849" y="816" as="targetPoint" />
          </mxGeometry>
        </mxCell>
        <mxCell id="GZcs-82NvciUyBs2JlbP-264" value="UC11.2&lt;div&gt;JAM&#39;e katılmak&lt;/div&gt;" style="ellipse;whiteSpace=wrap;html=1;" parent="GZcs-82NvciUyBs2JlbP-517" vertex="1">
          <mxGeometry x="356" y="1160" width="116" height="60" as="geometry" />
        </mxCell>
        <mxCell id="GZcs-82NvciUyBs2JlbP-265" value="&amp;lt;&amp;lt;extend&amp;gt;&amp;gt;" style="html=1;verticalAlign=bottom;labelBackgroundColor=none;endArrow=open;endFill=0;dashed=1;rounded=0;exitX=0.5;exitY=0;exitDx=0;exitDy=0;entryX=1;entryY=1;entryDx=0;entryDy=0;" parent="GZcs-82NvciUyBs2JlbP-517" source="GZcs-82NvciUyBs2JlbP-264" target="GZcs-82NvciUyBs2JlbP-261" edge="1">
          <mxGeometry width="160" relative="1" as="geometry">
            <mxPoint x="1037" y="672" as="sourcePoint" />
            <mxPoint x="480" y="1122" as="targetPoint" />
          </mxGeometry>
        </mxCell>
        <mxCell id="GZcs-82NvciUyBs2JlbP-262" value="UC11.1&lt;div&gt;Kullanıcıyı Davet Etmek&lt;/div&gt;" style="ellipse;whiteSpace=wrap;html=1;" parent="GZcs-82NvciUyBs2JlbP-517" vertex="1">
          <mxGeometry x="490" y="1140" width="116" height="60" as="geometry" />
        </mxCell>
        <mxCell id="GZcs-82NvciUyBs2JlbP-263" value="&amp;lt;&amp;lt;include&amp;gt;&amp;gt;" style="html=1;verticalAlign=bottom;labelBackgroundColor=none;endArrow=open;endFill=0;dashed=1;rounded=0;exitX=1;exitY=0.5;exitDx=0;exitDy=0;" parent="GZcs-82NvciUyBs2JlbP-517" source="GZcs-82NvciUyBs2JlbP-261" target="GZcs-82NvciUyBs2JlbP-262" edge="1">
          <mxGeometry x="0.0086" width="160" relative="1" as="geometry">
            <mxPoint x="1070" y="405" as="sourcePoint" />
            <mxPoint x="1130" y="380" as="targetPoint" />
            <mxPoint as="offset" />
          </mxGeometry>
        </mxCell>
        <mxCell id="GZcs-82NvciUyBs2JlbP-180" value="&lt;div&gt;Fatura Görüntüleme&lt;/div&gt;" style="ellipse;whiteSpace=wrap;html=1;" parent="GZcs-82NvciUyBs2JlbP-517" vertex="1">
          <mxGeometry x="340" y="880" width="112" height="50" as="geometry" />
        </mxCell>
        <mxCell id="FCQOrwYPSLoCCznjD-UI-3" value="&lt;b&gt;UC15- Müzik/Podcast yükleme&lt;br&gt;&lt;/b&gt;" style="ellipse;whiteSpace=wrap;html=1;strokeWidth=3;" vertex="1" parent="GZcs-82NvciUyBs2JlbP-517">
          <mxGeometry x="1320" y="420" width="140" height="70" as="geometry" />
        </mxCell>
        <mxCell id="FCQOrwYPSLoCCznjD-UI-4" value="UC15.2&lt;div&gt;Meta veri ekler&lt;/div&gt;" style="ellipse;whiteSpace=wrap;html=1;" vertex="1" parent="GZcs-82NvciUyBs2JlbP-517">
          <mxGeometry x="1020" y="440" width="116" height="60" as="geometry" />
        </mxCell>
        <mxCell id="FCQOrwYPSLoCCznjD-UI-5" value="UC15.3&lt;div&gt;Kapak Görseli ekler&lt;/div&gt;" style="ellipse;whiteSpace=wrap;html=1;" vertex="1" parent="GZcs-82NvciUyBs2JlbP-517">
          <mxGeometry x="1059" y="580" width="116" height="60" as="geometry" />
        </mxCell>
        <mxCell id="FCQOrwYPSLoCCznjD-UI-6" value="UC15.5&lt;div&gt;Telif hakkı bilgisi bildir&lt;/div&gt;" style="ellipse;whiteSpace=wrap;html=1;" vertex="1" parent="GZcs-82NvciUyBs2JlbP-517">
          <mxGeometry x="1190" y="630" width="116" height="60" as="geometry" />
        </mxCell>
        <mxCell id="FCQOrwYPSLoCCznjD-UI-7" value="UC15.1&lt;div&gt;Parçanın içeriğini kontrol et&lt;/div&gt;" style="ellipse;whiteSpace=wrap;html=1;" vertex="1" parent="GZcs-82NvciUyBs2JlbP-517">
          <mxGeometry x="920" y="390" width="116" height="60" as="geometry" />
        </mxCell>
        <mxCell id="FCQOrwYPSLoCCznjD-UI-8" value="UC15.4&lt;div&gt;Sanatçı/podcaster profiline bağla&lt;/div&gt;" style="ellipse;whiteSpace=wrap;html=1;" vertex="1" parent="GZcs-82NvciUyBs2JlbP-517">
          <mxGeometry x="1059" y="650" width="116" height="60" as="geometry" />
        </mxCell>
        <mxCell id="FCQOrwYPSLoCCznjD-UI-9" value="&amp;lt;&amp;lt;include&amp;gt;&amp;gt;" style="html=1;verticalAlign=bottom;labelBackgroundColor=none;endArrow=open;endFill=0;dashed=1;rounded=0;entryX=1;entryY=0.5;entryDx=0;entryDy=0;exitX=0;exitY=0;exitDx=0;exitDy=0;" edge="1" parent="GZcs-82NvciUyBs2JlbP-517" source="FCQOrwYPSLoCCznjD-UI-3" target="FCQOrwYPSLoCCznjD-UI-7">
          <mxGeometry x="0.0086" width="160" relative="1" as="geometry">
            <mxPoint x="1300.5" y="520" as="sourcePoint" />
            <mxPoint x="1207.5" y="545" as="targetPoint" />
            <mxPoint as="offset" />
          </mxGeometry>
        </mxCell>
        <mxCell id="FCQOrwYPSLoCCznjD-UI-10" value="&amp;lt;&amp;lt;include&amp;gt;&amp;gt;" style="html=1;verticalAlign=bottom;labelBackgroundColor=none;endArrow=open;endFill=0;dashed=1;rounded=0;exitX=0;exitY=0.5;exitDx=0;exitDy=0;" edge="1" parent="GZcs-82NvciUyBs2JlbP-517" source="FCQOrwYPSLoCCznjD-UI-3" target="FCQOrwYPSLoCCznjD-UI-4">
          <mxGeometry x="0.0086" width="160" relative="1" as="geometry">
            <mxPoint x="1277.47" y="595" as="sourcePoint" />
            <mxPoint x="1277.47" y="525" as="targetPoint" />
            <mxPoint as="offset" />
          </mxGeometry>
        </mxCell>
        <mxCell id="FCQOrwYPSLoCCznjD-UI-11" value="&amp;lt;&amp;lt;include&amp;gt;&amp;gt;" style="html=1;verticalAlign=bottom;labelBackgroundColor=none;endArrow=open;endFill=0;dashed=1;rounded=0;entryX=0.682;entryY=-0.035;entryDx=0;entryDy=0;exitX=0;exitY=1;exitDx=0;exitDy=0;entryPerimeter=0;" edge="1" parent="GZcs-82NvciUyBs2JlbP-517" source="FCQOrwYPSLoCCznjD-UI-3" target="FCQOrwYPSLoCCznjD-UI-5">
          <mxGeometry x="0.0086" width="160" relative="1" as="geometry">
            <mxPoint x="1351" y="600" as="sourcePoint" />
            <mxPoint x="1275.5" y="595" as="targetPoint" />
            <mxPoint as="offset" />
          </mxGeometry>
        </mxCell>
        <mxCell id="FCQOrwYPSLoCCznjD-UI-12" value="&amp;lt;&amp;lt;include&amp;gt;&amp;gt;" style="html=1;verticalAlign=bottom;labelBackgroundColor=none;endArrow=open;endFill=0;dashed=1;rounded=0;entryX=0.5;entryY=0;entryDx=0;entryDy=0;exitX=0.555;exitY=0.99;exitDx=0;exitDy=0;exitPerimeter=0;" edge="1" parent="GZcs-82NvciUyBs2JlbP-517" source="FCQOrwYPSLoCCznjD-UI-3" target="FCQOrwYPSLoCCznjD-UI-6">
          <mxGeometry x="0.0086" width="160" relative="1" as="geometry">
            <mxPoint x="1358" y="595" as="sourcePoint" />
            <mxPoint x="1266" y="595" as="targetPoint" />
            <mxPoint as="offset" />
          </mxGeometry>
        </mxCell>
        <mxCell id="FCQOrwYPSLoCCznjD-UI-13" value="&amp;lt;&amp;lt;extend&amp;gt;&amp;gt;" style="html=1;verticalAlign=bottom;labelBackgroundColor=none;endArrow=open;endFill=0;dashed=1;rounded=0;exitX=0.765;exitY=0.037;exitDx=0;exitDy=0;entryX=0.351;entryY=0.929;entryDx=0;entryDy=0;exitPerimeter=0;entryPerimeter=0;" edge="1" parent="GZcs-82NvciUyBs2JlbP-517" source="FCQOrwYPSLoCCznjD-UI-8" target="FCQOrwYPSLoCCznjD-UI-3">
          <mxGeometry width="160" relative="1" as="geometry">
            <mxPoint x="1318" y="310" as="sourcePoint" />
            <mxPoint x="1336" y="270" as="targetPoint" />
          </mxGeometry>
        </mxCell>
        <mxCell id="FCQOrwYPSLoCCznjD-UI-14" value="&lt;b&gt;UC18- İçeriği Yayından Kaldır&lt;br&gt;&lt;/b&gt;" style="ellipse;whiteSpace=wrap;html=1;strokeWidth=3;" vertex="1" parent="GZcs-82NvciUyBs2JlbP-517">
          <mxGeometry x="880" y="580" width="140" height="70" as="geometry" />
        </mxCell>
        <mxCell id="FCQOrwYPSLoCCznjD-UI-15" value="&lt;b&gt;UC19- İçeriği Düzenlemek&lt;br&gt;&lt;/b&gt;" style="ellipse;whiteSpace=wrap;html=1;strokeWidth=3;" vertex="1" parent="GZcs-82NvciUyBs2JlbP-517">
          <mxGeometry x="880" y="500" width="140" height="70" as="geometry" />
        </mxCell>
        <mxCell id="FCQOrwYPSLoCCznjD-UI-16" value="&amp;lt;&amp;lt;extend&amp;gt;&amp;gt;" style="html=1;verticalAlign=bottom;labelBackgroundColor=none;endArrow=open;endFill=0;dashed=1;rounded=0;exitX=1;exitY=0.5;exitDx=0;exitDy=0;" edge="1" parent="GZcs-82NvciUyBs2JlbP-517" source="FCQOrwYPSLoCCznjD-UI-15">
          <mxGeometry width="160" relative="1" as="geometry">
            <mxPoint x="1108" y="570" as="sourcePoint" />
            <mxPoint x="1320" y="470" as="targetPoint" />
          </mxGeometry>
        </mxCell>
        <mxCell id="FCQOrwYPSLoCCznjD-UI-17" value="&amp;lt;&amp;lt;extend&amp;gt;&amp;gt;" style="html=1;verticalAlign=bottom;labelBackgroundColor=none;endArrow=open;endFill=0;dashed=1;rounded=0;exitX=1;exitY=0;exitDx=0;exitDy=0;entryX=0.071;entryY=0.714;entryDx=0;entryDy=0;entryPerimeter=0;" edge="1" parent="GZcs-82NvciUyBs2JlbP-517" source="FCQOrwYPSLoCCznjD-UI-14" target="FCQOrwYPSLoCCznjD-UI-3">
          <mxGeometry width="160" relative="1" as="geometry">
            <mxPoint x="1011" y="590" as="sourcePoint" />
            <mxPoint x="1330" y="480" as="targetPoint" />
          </mxGeometry>
        </mxCell>
        <mxCell id="FCQOrwYPSLoCCznjD-UI-21" value="&lt;b&gt;UC21- Şarkı yükleme sistemine giriş&lt;br&gt;&lt;/b&gt;" style="ellipse;whiteSpace=wrap;html=1;strokeWidth=3;" vertex="1" parent="GZcs-82NvciUyBs2JlbP-517">
          <mxGeometry x="1326" y="275" width="140" height="70" as="geometry" />
        </mxCell>
        <mxCell id="FCQOrwYPSLoCCznjD-UI-22" value="UC21.1&lt;div&gt;Şifremi Unuttum&lt;/div&gt;" style="ellipse;whiteSpace=wrap;html=1;" vertex="1" parent="GZcs-82NvciUyBs2JlbP-517">
          <mxGeometry x="1140" y="270" width="116" height="60" as="geometry" />
        </mxCell>
        <mxCell id="FCQOrwYPSLoCCznjD-UI-23" value="&lt;div&gt;UC21.2&lt;/div&gt;Captcha Doğrulaması" style="ellipse;whiteSpace=wrap;html=1;" vertex="1" parent="GZcs-82NvciUyBs2JlbP-517">
          <mxGeometry x="1090" y="180" width="116" height="60" as="geometry" />
        </mxCell>
        <mxCell id="FCQOrwYPSLoCCznjD-UI-24" value="&lt;div&gt;Kullanıcı Bilgileri Yanlış Hatası&lt;/div&gt;" style="ellipse;whiteSpace=wrap;html=1;" vertex="1" parent="GZcs-82NvciUyBs2JlbP-517">
          <mxGeometry x="1256" y="190" width="116" height="60" as="geometry" />
        </mxCell>
        <mxCell id="FCQOrwYPSLoCCznjD-UI-25" value="&amp;lt;&amp;lt;include&amp;gt;&amp;gt;" style="html=1;verticalAlign=bottom;labelBackgroundColor=none;endArrow=open;endFill=0;dashed=1;rounded=0;exitX=0;exitY=1;exitDx=0;exitDy=0;entryX=1;entryY=0.5;entryDx=0;entryDy=0;" edge="1" parent="GZcs-82NvciUyBs2JlbP-517" source="FCQOrwYPSLoCCznjD-UI-21" target="FCQOrwYPSLoCCznjD-UI-33">
          <mxGeometry width="160" relative="1" as="geometry">
            <mxPoint x="568" y="161" as="sourcePoint" />
            <mxPoint x="721" y="345" as="targetPoint" />
          </mxGeometry>
        </mxCell>
        <mxCell id="FCQOrwYPSLoCCznjD-UI-26" value="&amp;lt;&amp;lt;extend&amp;gt;&amp;gt;" style="html=1;verticalAlign=bottom;labelBackgroundColor=none;endArrow=open;endFill=0;dashed=1;rounded=0;exitX=1;exitY=1;exitDx=0;exitDy=0;entryX=0.5;entryY=0;entryDx=0;entryDy=0;" edge="1" parent="GZcs-82NvciUyBs2JlbP-517" source="FCQOrwYPSLoCCznjD-UI-24" target="FCQOrwYPSLoCCznjD-UI-21">
          <mxGeometry width="160" relative="1" as="geometry">
            <mxPoint x="555" y="275" as="sourcePoint" />
            <mxPoint x="590" y="151" as="targetPoint" />
          </mxGeometry>
        </mxCell>
        <mxCell id="FCQOrwYPSLoCCznjD-UI-27" value="&amp;lt;&amp;lt;extend&amp;gt;&amp;gt;" style="html=1;verticalAlign=bottom;labelBackgroundColor=none;endArrow=open;endFill=0;dashed=1;rounded=0;entryX=0.002;entryY=0.388;entryDx=0;entryDy=0;exitX=1;exitY=0.5;exitDx=0;exitDy=0;entryPerimeter=0;" edge="1" parent="GZcs-82NvciUyBs2JlbP-517" target="FCQOrwYPSLoCCznjD-UI-21" source="FCQOrwYPSLoCCznjD-UI-22">
          <mxGeometry width="160" relative="1" as="geometry">
            <mxPoint x="1220" y="250" as="sourcePoint" />
            <mxPoint x="598" y="140" as="targetPoint" />
          </mxGeometry>
        </mxCell>
        <mxCell id="FCQOrwYPSLoCCznjD-UI-28" value="&amp;lt;&amp;lt;include&amp;gt;&amp;gt;" style="html=1;verticalAlign=bottom;labelBackgroundColor=none;endArrow=open;endFill=0;dashed=1;rounded=0;exitX=0;exitY=0.394;exitDx=0;exitDy=0;exitPerimeter=0;entryX=1;entryY=0.5;entryDx=0;entryDy=0;" edge="1" parent="GZcs-82NvciUyBs2JlbP-517" source="FCQOrwYPSLoCCznjD-UI-24" target="FCQOrwYPSLoCCznjD-UI-23">
          <mxGeometry width="160" relative="1" as="geometry">
            <mxPoint x="745" y="495" as="sourcePoint" />
            <mxPoint x="1180" y="210" as="targetPoint" />
          </mxGeometry>
        </mxCell>
        <mxCell id="FCQOrwYPSLoCCznjD-UI-29" value="&lt;div&gt;UC21.1.2&lt;/div&gt;Telefon Numarası İle&lt;div&gt;Şifre Sıfırlama&lt;/div&gt;" style="ellipse;whiteSpace=wrap;html=1;" vertex="1" parent="GZcs-82NvciUyBs2JlbP-517">
          <mxGeometry x="930" y="280" width="116" height="60" as="geometry" />
        </mxCell>
        <mxCell id="FCQOrwYPSLoCCznjD-UI-30" value="UC21.1.1&lt;div&gt;E-posta İle Şifre Sıfırlama&lt;/div&gt;" style="ellipse;whiteSpace=wrap;html=1;" vertex="1" parent="GZcs-82NvciUyBs2JlbP-517">
          <mxGeometry x="914" y="210" width="116" height="60" as="geometry" />
        </mxCell>
        <mxCell id="FCQOrwYPSLoCCznjD-UI-31" value="&amp;lt;&amp;lt;include&amp;gt;&amp;gt;" style="html=1;verticalAlign=bottom;labelBackgroundColor=none;endArrow=open;endFill=0;dashed=1;rounded=0;exitX=0;exitY=0;exitDx=0;exitDy=0;entryX=0.968;entryY=0.608;entryDx=0;entryDy=0;entryPerimeter=0;" edge="1" parent="GZcs-82NvciUyBs2JlbP-517" source="FCQOrwYPSLoCCznjD-UI-22" target="FCQOrwYPSLoCCznjD-UI-30">
          <mxGeometry width="160" relative="1" as="geometry">
            <mxPoint x="601" y="468" as="sourcePoint" />
            <mxPoint x="550" y="519" as="targetPoint" />
          </mxGeometry>
        </mxCell>
        <mxCell id="FCQOrwYPSLoCCznjD-UI-32" value="&amp;lt;&amp;lt;extend&amp;gt;&amp;gt;" style="html=1;verticalAlign=bottom;labelBackgroundColor=none;endArrow=open;endFill=0;dashed=1;rounded=0;exitX=0.983;exitY=0.662;exitDx=0;exitDy=0;entryX=0.054;entryY=0.631;entryDx=0;entryDy=0;entryPerimeter=0;exitPerimeter=0;" edge="1" parent="GZcs-82NvciUyBs2JlbP-517" source="FCQOrwYPSLoCCznjD-UI-29" target="FCQOrwYPSLoCCznjD-UI-22">
          <mxGeometry width="160" relative="1" as="geometry">
            <mxPoint x="627" y="410" as="sourcePoint" />
            <mxPoint x="709" y="315" as="targetPoint" />
          </mxGeometry>
        </mxCell>
        <mxCell id="FCQOrwYPSLoCCznjD-UI-33" value="&lt;div&gt;&lt;span style=&quot;background-color: transparent; color: light-dark(rgb(0, 0, 0), rgb(255, 255, 255));&quot;&gt;Kimlik Doğrulaması&lt;/span&gt;&lt;/div&gt;" style="ellipse;whiteSpace=wrap;html=1;" vertex="1" parent="GZcs-82NvciUyBs2JlbP-517">
          <mxGeometry x="1051" y="340" width="116" height="60" as="geometry" />
        </mxCell>
        <mxCell id="FCQOrwYPSLoCCznjD-UI-34" value="&lt;b&gt;UC22- Şarkı yükleme sistemine kayıt olma&lt;br&gt;&lt;/b&gt;" style="ellipse;whiteSpace=wrap;html=1;strokeWidth=3;" vertex="1" parent="GZcs-82NvciUyBs2JlbP-517">
          <mxGeometry x="1326" y="110" width="140" height="70" as="geometry" />
        </mxCell>
        <mxCell id="FCQOrwYPSLoCCznjD-UI-35" value="Geçersiz Şifre&amp;nbsp;&lt;div&gt;Hatası&lt;/div&gt;" style="ellipse;whiteSpace=wrap;html=1;" vertex="1" parent="GZcs-82NvciUyBs2JlbP-517">
          <mxGeometry x="1338" y="10" width="116" height="60" as="geometry" />
        </mxCell>
        <mxCell id="FCQOrwYPSLoCCznjD-UI-36" value="Kayıtlı E-posta Hatası" style="ellipse;whiteSpace=wrap;html=1;" vertex="1" parent="GZcs-82NvciUyBs2JlbP-517">
          <mxGeometry x="1185" y="20" width="116" height="60" as="geometry" />
        </mxCell>
        <mxCell id="FCQOrwYPSLoCCznjD-UI-37" value="Eksik Bilgi Girişi Hatası" style="ellipse;whiteSpace=wrap;html=1;" vertex="1" parent="GZcs-82NvciUyBs2JlbP-517">
          <mxGeometry x="1011" y="120" width="116" height="60" as="geometry" />
        </mxCell>
        <mxCell id="FCQOrwYPSLoCCznjD-UI-38" value="Kullanım Şartlarını Onaylama" style="ellipse;whiteSpace=wrap;html=1;" vertex="1" parent="GZcs-82NvciUyBs2JlbP-517">
          <mxGeometry x="1030" y="50" width="116" height="60" as="geometry" />
        </mxCell>
        <mxCell id="FCQOrwYPSLoCCznjD-UI-39" value="&amp;lt;&amp;lt;extend&amp;gt;&amp;gt;" style="html=1;verticalAlign=bottom;labelBackgroundColor=none;endArrow=open;endFill=0;dashed=1;rounded=0;exitX=0.5;exitY=1;exitDx=0;exitDy=0;entryX=0.5;entryY=0;entryDx=0;entryDy=0;" edge="1" parent="GZcs-82NvciUyBs2JlbP-517" source="FCQOrwYPSLoCCznjD-UI-35" target="FCQOrwYPSLoCCznjD-UI-34">
          <mxGeometry width="160" relative="1" as="geometry">
            <mxPoint x="1060" y="180" as="sourcePoint" />
            <mxPoint x="850" y="70" as="targetPoint" />
          </mxGeometry>
        </mxCell>
        <mxCell id="FCQOrwYPSLoCCznjD-UI-40" value="&amp;lt;&amp;lt;extend&amp;gt;&amp;gt;" style="html=1;verticalAlign=bottom;labelBackgroundColor=none;endArrow=open;endFill=0;dashed=1;rounded=0;exitX=1;exitY=1;exitDx=0;exitDy=0;entryX=0;entryY=0;entryDx=0;entryDy=0;" edge="1" parent="GZcs-82NvciUyBs2JlbP-517" source="FCQOrwYPSLoCCznjD-UI-36" target="FCQOrwYPSLoCCznjD-UI-34">
          <mxGeometry width="160" relative="1" as="geometry">
            <mxPoint x="936" y="20" as="sourcePoint" />
            <mxPoint x="889" y="75" as="targetPoint" />
          </mxGeometry>
        </mxCell>
        <mxCell id="FCQOrwYPSLoCCznjD-UI-41" value="&amp;lt;&amp;lt;extend&amp;gt;&amp;gt;" style="html=1;verticalAlign=bottom;labelBackgroundColor=none;endArrow=open;endFill=0;dashed=1;rounded=0;entryX=0;entryY=1;entryDx=0;entryDy=0;exitX=1;exitY=0.5;exitDx=0;exitDy=0;" edge="1" parent="GZcs-82NvciUyBs2JlbP-517" source="FCQOrwYPSLoCCznjD-UI-37" target="FCQOrwYPSLoCCznjD-UI-34">
          <mxGeometry width="160" relative="1" as="geometry">
            <mxPoint x="1172" y="130" as="sourcePoint" />
            <mxPoint x="1142" y="190" as="targetPoint" />
          </mxGeometry>
        </mxCell>
        <mxCell id="FCQOrwYPSLoCCznjD-UI-42" value="&amp;lt;&amp;lt;include&amp;gt;&amp;gt;" style="html=1;verticalAlign=bottom;labelBackgroundColor=none;endArrow=open;endFill=0;dashed=1;rounded=0;exitX=0;exitY=0.5;exitDx=0;exitDy=0;entryX=1;entryY=0.5;entryDx=0;entryDy=0;" edge="1" parent="GZcs-82NvciUyBs2JlbP-517" source="FCQOrwYPSLoCCznjD-UI-34" target="FCQOrwYPSLoCCznjD-UI-38">
          <mxGeometry width="160" relative="1" as="geometry">
            <mxPoint x="915" y="92" as="sourcePoint" />
            <mxPoint x="1053" y="114" as="targetPoint" />
          </mxGeometry>
        </mxCell>
        <mxCell id="FCQOrwYPSLoCCznjD-UI-59" value="&lt;b&gt;UC17- Sanatçı yetkilendirme formu&lt;/b&gt;&lt;div&gt;&lt;b&gt;yükleme&amp;nbsp;&lt;br&gt;&lt;/b&gt;&lt;/div&gt;" style="ellipse;whiteSpace=wrap;html=1;strokeWidth=3;" vertex="1" parent="GZcs-82NvciUyBs2JlbP-517">
          <mxGeometry x="1320" y="730" width="140" height="70" as="geometry" />
        </mxCell>
        <mxCell id="FCQOrwYPSLoCCznjD-UI-60" value="UC17.1&lt;div&gt;Dosya formatı doğrulama&lt;/div&gt;" style="ellipse;whiteSpace=wrap;html=1;" vertex="1" parent="GZcs-82NvciUyBs2JlbP-517">
          <mxGeometry x="1146" y="710" width="116" height="60" as="geometry" />
        </mxCell>
        <mxCell id="FCQOrwYPSLoCCznjD-UI-61" value="UC17.2&lt;div&gt;Yetkilendirme şartlarını kabul etmek&lt;/div&gt;" style="ellipse;whiteSpace=wrap;html=1;" vertex="1" parent="GZcs-82NvciUyBs2JlbP-517">
          <mxGeometry x="1127" y="800" width="116" height="60" as="geometry" />
        </mxCell>
        <mxCell id="FCQOrwYPSLoCCznjD-UI-62" value="&amp;lt;&amp;lt;include&amp;gt;&amp;gt;" style="html=1;verticalAlign=bottom;labelBackgroundColor=none;endArrow=open;endFill=0;dashed=1;rounded=0;exitX=0;exitY=0;exitDx=0;exitDy=0;entryX=1.005;entryY=0.701;entryDx=0;entryDy=0;entryPerimeter=0;" edge="1" parent="GZcs-82NvciUyBs2JlbP-517" source="FCQOrwYPSLoCCznjD-UI-59" target="FCQOrwYPSLoCCznjD-UI-60">
          <mxGeometry x="0.0086" width="160" relative="1" as="geometry">
            <mxPoint x="1358" y="720" as="sourcePoint" />
            <mxPoint x="1280" y="720" as="targetPoint" />
            <mxPoint as="offset" />
          </mxGeometry>
        </mxCell>
        <mxCell id="FCQOrwYPSLoCCznjD-UI-63" value="&amp;lt;&amp;lt;include&amp;gt;&amp;gt;" style="html=1;verticalAlign=bottom;labelBackgroundColor=none;endArrow=open;endFill=0;dashed=1;rounded=0;exitX=0.013;exitY=0.662;exitDx=0;exitDy=0;entryX=0.936;entryY=0.296;entryDx=0;entryDy=0;entryPerimeter=0;exitPerimeter=0;" edge="1" parent="GZcs-82NvciUyBs2JlbP-517" source="FCQOrwYPSLoCCznjD-UI-59" target="FCQOrwYPSLoCCznjD-UI-61">
          <mxGeometry x="0.0086" width="160" relative="1" as="geometry">
            <mxPoint x="1350" y="750" as="sourcePoint" />
            <mxPoint x="1284" y="730" as="targetPoint" />
            <mxPoint as="offset" />
          </mxGeometry>
        </mxCell>
        <mxCell id="FCQOrwYPSLoCCznjD-UI-64" value="UC17.3&lt;div&gt;Form bilgilerini güncellemek&lt;/div&gt;" style="ellipse;whiteSpace=wrap;html=1;" vertex="1" parent="GZcs-82NvciUyBs2JlbP-517">
          <mxGeometry x="1243" y="840" width="116" height="60" as="geometry" />
        </mxCell>
        <mxCell id="FCQOrwYPSLoCCznjD-UI-65" value="&amp;lt;&amp;lt;extend&amp;gt;&amp;gt;" style="html=1;verticalAlign=bottom;labelBackgroundColor=none;endArrow=open;endFill=0;dashed=1;rounded=0;exitX=0.604;exitY=-0.021;exitDx=0;exitDy=0;entryX=0.298;entryY=0.961;entryDx=0;entryDy=0;exitPerimeter=0;entryPerimeter=0;" edge="1" parent="GZcs-82NvciUyBs2JlbP-517" source="FCQOrwYPSLoCCznjD-UI-64" target="FCQOrwYPSLoCCznjD-UI-59">
          <mxGeometry width="160" relative="1" as="geometry">
            <mxPoint x="1319" y="577" as="sourcePoint" />
            <mxPoint x="1402" y="520" as="targetPoint" />
          </mxGeometry>
        </mxCell>
        <mxCell id="FCQOrwYPSLoCCznjD-UI-66" value="UC16.2&lt;div&gt;Telif-gelir raporu görüntüleme&lt;/div&gt;" style="ellipse;whiteSpace=wrap;html=1;" vertex="1" parent="GZcs-82NvciUyBs2JlbP-517">
          <mxGeometry x="1090" y="1050" width="116" height="60" as="geometry" />
        </mxCell>
        <mxCell id="FCQOrwYPSLoCCznjD-UI-67" value="UC16.1&lt;div&gt;İçerik performans görüntüleme&lt;/div&gt;" style="ellipse;whiteSpace=wrap;html=1;" vertex="1" parent="GZcs-82NvciUyBs2JlbP-517">
          <mxGeometry x="1332" y="900" width="116" height="60" as="geometry" />
        </mxCell>
        <mxCell id="FCQOrwYPSLoCCznjD-UI-68" value="&lt;b&gt;UC16- Raporlama Paneline Erişim&amp;nbsp;&lt;/b&gt;&lt;span style=&quot;color: rgba(0, 0, 0, 0); font-family: monospace; font-size: 0px; text-align: start; text-wrap-mode: nowrap;&quot;&gt;%3CmxGraphModel%3E%3Croot%3E%3CmxCell%20id%3D%220%22%2F%3E%3CmxCell%20id%3D%221%22%20parent%3D%220%22%2F%3E%3CmxCell%20id%3D%222%22%20value%3D%22%26lt%3Bb%26gt%3BUC15-%20M%C3%BCzik%2FPodcast%20y%C3%BCkleme%26lt%3Bbr%26gt%3B%26lt%3B%2Fb%26gt%3B%22%20style%3D%22ellipse%3BwhiteSpace%3Dwrap%3Bhtml%3D1%3BstrokeWidth%3D3%3B%22%20vertex%3D%221%22%20parent%3D%221%22%3E%3CmxGeometry%20x%3D%221932%22%20y%3D%22860%22%20width%3D%22140%22%20height%3D%2270%22%20as%3D%22geometry%22%2F%3E%3C%2FmxCell%3E%3C%2Froot%3E%3C%2FmxGraphModel%3E&lt;/span&gt;&lt;b&gt;&lt;br&gt;&lt;/b&gt;" style="ellipse;whiteSpace=wrap;html=1;strokeWidth=3;" vertex="1" parent="GZcs-82NvciUyBs2JlbP-517">
          <mxGeometry x="1314" y="1010" width="140" height="70" as="geometry" />
        </mxCell>
        <mxCell id="FCQOrwYPSLoCCznjD-UI-69" value="&amp;lt;&amp;lt;extend&amp;gt;&amp;gt;" style="html=1;verticalAlign=bottom;labelBackgroundColor=none;endArrow=open;endFill=0;dashed=1;rounded=0;exitX=0.5;exitY=1;exitDx=0;exitDy=0;entryX=0.614;entryY=0;entryDx=0;entryDy=0;entryPerimeter=0;" edge="1" parent="GZcs-82NvciUyBs2JlbP-517" source="FCQOrwYPSLoCCznjD-UI-67" target="FCQOrwYPSLoCCznjD-UI-68">
          <mxGeometry width="160" relative="1" as="geometry">
            <mxPoint x="1313" y="747" as="sourcePoint" />
            <mxPoint x="1397" y="690" as="targetPoint" />
          </mxGeometry>
        </mxCell>
        <mxCell id="FCQOrwYPSLoCCznjD-UI-70" value="&amp;lt;&amp;lt;extend&amp;gt;&amp;gt;" style="html=1;verticalAlign=bottom;labelBackgroundColor=none;endArrow=open;endFill=0;dashed=1;rounded=0;exitX=1;exitY=0;exitDx=0;exitDy=0;entryX=0.019;entryY=0.682;entryDx=0;entryDy=0;entryPerimeter=0;" edge="1" parent="GZcs-82NvciUyBs2JlbP-517" source="FCQOrwYPSLoCCznjD-UI-66" target="FCQOrwYPSLoCCznjD-UI-68">
          <mxGeometry width="160" relative="1" as="geometry">
            <mxPoint x="1293" y="961" as="sourcePoint" />
            <mxPoint x="1361" y="1021" as="targetPoint" />
          </mxGeometry>
        </mxCell>
        <mxCell id="FCQOrwYPSLoCCznjD-UI-71" value="UC16.3&lt;div&gt;Filtreleme seçenekleri uygula&lt;/div&gt;" style="ellipse;whiteSpace=wrap;html=1;" vertex="1" parent="GZcs-82NvciUyBs2JlbP-517">
          <mxGeometry x="1136" y="890" width="116" height="60" as="geometry" />
        </mxCell>
        <mxCell id="FCQOrwYPSLoCCznjD-UI-72" value="UC16.4&lt;div&gt;Raporu dışa aktar&lt;/div&gt;" style="ellipse;whiteSpace=wrap;html=1;" vertex="1" parent="GZcs-82NvciUyBs2JlbP-517">
          <mxGeometry x="1090" y="970" width="116" height="60" as="geometry" />
        </mxCell>
        <mxCell id="FCQOrwYPSLoCCznjD-UI-73" value="&amp;lt;&amp;lt;extend&amp;gt;&amp;gt;" style="html=1;verticalAlign=bottom;labelBackgroundColor=none;endArrow=open;endFill=0;dashed=1;rounded=0;entryX=0.312;entryY=0.011;entryDx=0;entryDy=0;entryPerimeter=0;exitX=0.787;exitY=0.936;exitDx=0;exitDy=0;exitPerimeter=0;" edge="1" parent="GZcs-82NvciUyBs2JlbP-517" source="FCQOrwYPSLoCCznjD-UI-71" target="FCQOrwYPSLoCCznjD-UI-68">
          <mxGeometry width="160" relative="1" as="geometry">
            <mxPoint x="1386" y="860" as="sourcePoint" />
            <mxPoint x="1418" y="817" as="targetPoint" />
          </mxGeometry>
        </mxCell>
        <mxCell id="FCQOrwYPSLoCCznjD-UI-74" value="&amp;lt;&amp;lt;extend&amp;gt;&amp;gt;" style="html=1;verticalAlign=bottom;labelBackgroundColor=none;endArrow=open;endFill=0;dashed=1;rounded=0;entryX=-0.006;entryY=0.404;entryDx=0;entryDy=0;entryPerimeter=0;exitX=1;exitY=0.5;exitDx=0;exitDy=0;" edge="1" parent="GZcs-82NvciUyBs2JlbP-517" source="FCQOrwYPSLoCCznjD-UI-72" target="FCQOrwYPSLoCCznjD-UI-68">
          <mxGeometry width="160" relative="1" as="geometry">
            <mxPoint x="1147" y="966" as="sourcePoint" />
            <mxPoint x="1337" y="1031" as="targetPoint" />
          </mxGeometry>
        </mxCell>
        <mxCell id="FCQOrwYPSLoCCznjD-UI-76" value="&amp;lt;&amp;lt;include&amp;gt;&amp;gt;" style="html=1;verticalAlign=bottom;labelBackgroundColor=none;endArrow=open;endFill=0;dashed=1;rounded=0;exitX=0.748;exitY=0.929;exitDx=0;exitDy=0;exitPerimeter=0;entryX=0.748;entryY=0.071;entryDx=0;entryDy=0;entryPerimeter=0;" edge="1" parent="GZcs-82NvciUyBs2JlbP-517" source="FCQOrwYPSLoCCznjD-UI-34" target="FCQOrwYPSLoCCznjD-UI-21">
          <mxGeometry width="160" relative="1" as="geometry">
            <mxPoint x="1266" y="224" as="sourcePoint" />
            <mxPoint x="1216" y="220" as="targetPoint" />
          </mxGeometry>
        </mxCell>
        <mxCell id="FCQOrwYPSLoCCznjD-UI-77" value="&amp;lt;&amp;lt;include&amp;gt;&amp;gt;" style="html=1;verticalAlign=bottom;labelBackgroundColor=none;endArrow=open;endFill=0;dashed=1;rounded=0;exitX=0.5;exitY=1;exitDx=0;exitDy=0;" edge="1" parent="GZcs-82NvciUyBs2JlbP-517" source="FCQOrwYPSLoCCznjD-UI-21">
          <mxGeometry width="160" relative="1" as="geometry">
            <mxPoint x="1395.67" y="317.5" as="sourcePoint" />
            <mxPoint x="1396" y="420" as="targetPoint" />
          </mxGeometry>
        </mxCell>
        <mxCell id="FCQOrwYPSLoCCznjD-UI-78" value="&amp;lt;&amp;lt;include&amp;gt;&amp;gt;" style="html=1;verticalAlign=bottom;labelBackgroundColor=none;endArrow=open;endFill=0;dashed=1;rounded=0;exitX=1;exitY=0.5;exitDx=0;exitDy=0;entryX=1;entryY=0.5;entryDx=0;entryDy=0;" edge="1" parent="GZcs-82NvciUyBs2JlbP-517" source="FCQOrwYPSLoCCznjD-UI-21" target="FCQOrwYPSLoCCznjD-UI-59">
          <mxGeometry width="160" relative="1" as="geometry">
            <mxPoint x="1441" y="185" as="sourcePoint" />
            <mxPoint x="1441" y="290" as="targetPoint" />
            <Array as="points">
              <mxPoint x="1500" y="310" />
              <mxPoint x="1500" y="765" />
            </Array>
          </mxGeometry>
        </mxCell>
        <mxCell id="FCQOrwYPSLoCCznjD-UI-79" value="&amp;lt;&amp;lt;include&amp;gt;&amp;gt;" style="html=1;verticalAlign=bottom;labelBackgroundColor=none;endArrow=open;endFill=0;dashed=1;rounded=0;exitX=1.005;exitY=0.343;exitDx=0;exitDy=0;entryX=1;entryY=0.5;entryDx=0;entryDy=0;exitPerimeter=0;" edge="1" parent="GZcs-82NvciUyBs2JlbP-517" source="FCQOrwYPSLoCCznjD-UI-21" target="FCQOrwYPSLoCCznjD-UI-68">
          <mxGeometry x="-0.1192" width="160" relative="1" as="geometry">
            <mxPoint x="1496" y="300" as="sourcePoint" />
            <mxPoint x="1490" y="755" as="targetPoint" />
            <Array as="points">
              <mxPoint x="1530" y="300" />
              <mxPoint x="1530" y="1045" />
            </Array>
            <mxPoint as="offset" />
          </mxGeometry>
        </mxCell>
        <mxCell id="FCQOrwYPSLoCCznjD-UI-81" value="&lt;b&gt;UC23- İçerik üreticisi kayıt olma&lt;br&gt;&lt;/b&gt;" style="ellipse;whiteSpace=wrap;html=1;strokeWidth=3;" vertex="1" parent="GZcs-82NvciUyBs2JlbP-517">
          <mxGeometry x="1390" y="1140" width="140" height="70" as="geometry" />
        </mxCell>
        <mxCell id="FCQOrwYPSLoCCznjD-UI-82" value="Geçersiz Şifre&amp;nbsp;&lt;div&gt;Hatası&lt;/div&gt;" style="ellipse;whiteSpace=wrap;html=1;" vertex="1" parent="GZcs-82NvciUyBs2JlbP-517">
          <mxGeometry x="1210" y="1090" width="116" height="60" as="geometry" />
        </mxCell>
        <mxCell id="FCQOrwYPSLoCCznjD-UI-83" value="Kayıtlı E-posta Hatası" style="ellipse;whiteSpace=wrap;html=1;" vertex="1" parent="GZcs-82NvciUyBs2JlbP-517">
          <mxGeometry x="1152" y="1155" width="116" height="60" as="geometry" />
        </mxCell>
        <mxCell id="FCQOrwYPSLoCCznjD-UI-84" value="Eksik Bilgi Girişi Hatası" style="ellipse;whiteSpace=wrap;html=1;" vertex="1" parent="GZcs-82NvciUyBs2JlbP-517">
          <mxGeometry x="1275" y="1290" width="116" height="60" as="geometry" />
        </mxCell>
        <mxCell id="FCQOrwYPSLoCCznjD-UI-85" value="Kullanım Şartlarını Onaylama" style="ellipse;whiteSpace=wrap;html=1;" vertex="1" parent="GZcs-82NvciUyBs2JlbP-517">
          <mxGeometry x="1198" y="1230" width="116" height="60" as="geometry" />
        </mxCell>
        <mxCell id="FCQOrwYPSLoCCznjD-UI-86" value="&amp;lt;&amp;lt;extend&amp;gt;&amp;gt;" style="html=1;verticalAlign=bottom;labelBackgroundColor=none;endArrow=open;endFill=0;dashed=1;rounded=0;exitX=0.924;exitY=0.793;exitDx=0;exitDy=0;entryX=0.066;entryY=0.221;entryDx=0;entryDy=0;exitPerimeter=0;entryPerimeter=0;" edge="1" parent="GZcs-82NvciUyBs2JlbP-517" source="FCQOrwYPSLoCCznjD-UI-82" target="FCQOrwYPSLoCCznjD-UI-81">
          <mxGeometry width="160" relative="1" as="geometry">
            <mxPoint x="671" y="1480" as="sourcePoint" />
            <mxPoint x="461" y="1370" as="targetPoint" />
          </mxGeometry>
        </mxCell>
        <mxCell id="FCQOrwYPSLoCCznjD-UI-87" value="&amp;lt;&amp;lt;extend&amp;gt;&amp;gt;" style="html=1;verticalAlign=bottom;labelBackgroundColor=none;endArrow=open;endFill=0;dashed=1;rounded=0;exitX=0.983;exitY=0.381;exitDx=0;exitDy=0;entryX=0.033;entryY=0.622;entryDx=0;entryDy=0;entryPerimeter=0;exitPerimeter=0;" edge="1" parent="GZcs-82NvciUyBs2JlbP-517" source="FCQOrwYPSLoCCznjD-UI-83" target="FCQOrwYPSLoCCznjD-UI-81">
          <mxGeometry width="160" relative="1" as="geometry">
            <mxPoint x="547" y="1320" as="sourcePoint" />
            <mxPoint x="500" y="1375" as="targetPoint" />
          </mxGeometry>
        </mxCell>
        <mxCell id="FCQOrwYPSLoCCznjD-UI-88" value="&amp;lt;&amp;lt;extend&amp;gt;&amp;gt;" style="html=1;verticalAlign=bottom;labelBackgroundColor=none;endArrow=open;endFill=0;dashed=1;rounded=0;entryX=0.375;entryY=1.013;entryDx=0;entryDy=0;exitX=0.574;exitY=-0.046;exitDx=0;exitDy=0;entryPerimeter=0;exitPerimeter=0;" edge="1" parent="GZcs-82NvciUyBs2JlbP-517" source="FCQOrwYPSLoCCznjD-UI-84" target="FCQOrwYPSLoCCznjD-UI-81">
          <mxGeometry width="160" relative="1" as="geometry">
            <mxPoint x="783" y="1430" as="sourcePoint" />
            <mxPoint x="753" y="1490" as="targetPoint" />
          </mxGeometry>
        </mxCell>
        <mxCell id="FCQOrwYPSLoCCznjD-UI-89" value="&amp;lt;&amp;lt;include&amp;gt;&amp;gt;" style="html=1;verticalAlign=bottom;labelBackgroundColor=none;endArrow=open;endFill=0;dashed=1;rounded=0;exitX=0;exitY=1;exitDx=0;exitDy=0;entryX=1;entryY=0;entryDx=0;entryDy=0;" edge="1" parent="GZcs-82NvciUyBs2JlbP-517" source="FCQOrwYPSLoCCznjD-UI-81" target="FCQOrwYPSLoCCznjD-UI-85">
          <mxGeometry width="160" relative="1" as="geometry">
            <mxPoint x="526" y="1392" as="sourcePoint" />
            <mxPoint x="664" y="1414" as="targetPoint" />
          </mxGeometry>
        </mxCell>
        <mxCell id="FCQOrwYPSLoCCznjD-UI-90" value="&lt;b&gt;UC24- İçerik Üreticisi&amp;nbsp; giriş&lt;br&gt;&lt;/b&gt;" style="ellipse;whiteSpace=wrap;html=1;strokeWidth=3;" vertex="1" parent="GZcs-82NvciUyBs2JlbP-517">
          <mxGeometry x="1390" y="1355" width="140" height="70" as="geometry" />
        </mxCell>
        <mxCell id="FCQOrwYPSLoCCznjD-UI-91" value="UC24,1&lt;div&gt;Şifremi Unuttum&lt;/div&gt;" style="ellipse;whiteSpace=wrap;html=1;" vertex="1" parent="GZcs-82NvciUyBs2JlbP-517">
          <mxGeometry x="1402" y="1470" width="116" height="60" as="geometry" />
        </mxCell>
        <mxCell id="FCQOrwYPSLoCCznjD-UI-92" value="&lt;div&gt;UC24.2&lt;/div&gt;Captcha Doğrulaması" style="ellipse;whiteSpace=wrap;html=1;" vertex="1" parent="GZcs-82NvciUyBs2JlbP-517">
          <mxGeometry x="1158" y="1530" width="116" height="60" as="geometry" />
        </mxCell>
        <mxCell id="FCQOrwYPSLoCCznjD-UI-93" value="&lt;div&gt;Kullanıcı Bilgileri Yanlış Hatası&lt;/div&gt;" style="ellipse;whiteSpace=wrap;html=1;" vertex="1" parent="GZcs-82NvciUyBs2JlbP-517">
          <mxGeometry x="1274" y="1450" width="116" height="60" as="geometry" />
        </mxCell>
        <mxCell id="FCQOrwYPSLoCCznjD-UI-94" value="&amp;lt;&amp;lt;include&amp;gt;&amp;gt;" style="html=1;verticalAlign=bottom;labelBackgroundColor=none;endArrow=open;endFill=0;dashed=1;rounded=0;entryX=1;entryY=0.5;entryDx=0;entryDy=0;" edge="1" parent="GZcs-82NvciUyBs2JlbP-517" source="FCQOrwYPSLoCCznjD-UI-90" target="FCQOrwYPSLoCCznjD-UI-102">
          <mxGeometry width="160" relative="1" as="geometry">
            <mxPoint x="700" y="1346" as="sourcePoint" />
            <mxPoint x="853" y="1530" as="targetPoint" />
          </mxGeometry>
        </mxCell>
        <mxCell id="FCQOrwYPSLoCCznjD-UI-95" value="&amp;lt;&amp;lt;extend&amp;gt;&amp;gt;" style="html=1;verticalAlign=bottom;labelBackgroundColor=none;endArrow=open;endFill=0;dashed=1;rounded=0;exitX=0.567;exitY=0.013;exitDx=0;exitDy=0;entryX=0;entryY=1;entryDx=0;entryDy=0;exitPerimeter=0;" edge="1" parent="GZcs-82NvciUyBs2JlbP-517" source="FCQOrwYPSLoCCznjD-UI-93" target="FCQOrwYPSLoCCznjD-UI-90">
          <mxGeometry width="160" relative="1" as="geometry">
            <mxPoint x="687" y="1460" as="sourcePoint" />
            <mxPoint x="1040" y="1485" as="targetPoint" />
          </mxGeometry>
        </mxCell>
        <mxCell id="FCQOrwYPSLoCCznjD-UI-96" value="&amp;lt;&amp;lt;extend&amp;gt;&amp;gt;" style="html=1;verticalAlign=bottom;labelBackgroundColor=none;endArrow=open;endFill=0;dashed=1;rounded=0;entryX=0.5;entryY=1;entryDx=0;entryDy=0;exitX=0.5;exitY=0;exitDx=0;exitDy=0;" edge="1" parent="GZcs-82NvciUyBs2JlbP-517" source="FCQOrwYPSLoCCznjD-UI-91" target="FCQOrwYPSLoCCznjD-UI-90">
          <mxGeometry width="160" relative="1" as="geometry">
            <mxPoint x="1352" y="1435" as="sourcePoint" />
            <mxPoint x="730" y="1325" as="targetPoint" />
          </mxGeometry>
        </mxCell>
        <mxCell id="FCQOrwYPSLoCCznjD-UI-97" value="&amp;lt;&amp;lt;include&amp;gt;&amp;gt;" style="html=1;verticalAlign=bottom;labelBackgroundColor=none;endArrow=open;endFill=0;dashed=1;rounded=0;exitX=0;exitY=1;exitDx=0;exitDy=0;" edge="1" parent="GZcs-82NvciUyBs2JlbP-517" source="FCQOrwYPSLoCCznjD-UI-93" target="FCQOrwYPSLoCCznjD-UI-92">
          <mxGeometry x="-0.0121" width="160" relative="1" as="geometry">
            <mxPoint x="877" y="1680" as="sourcePoint" />
            <mxPoint x="751" y="1742" as="targetPoint" />
            <mxPoint as="offset" />
          </mxGeometry>
        </mxCell>
        <mxCell id="FCQOrwYPSLoCCznjD-UI-98" value="&lt;div&gt;UC24.1.2&lt;/div&gt;Telefon Numarası İle&lt;div&gt;Şifre Sıfırlama&lt;/div&gt;" style="ellipse;whiteSpace=wrap;html=1;" vertex="1" parent="GZcs-82NvciUyBs2JlbP-517">
          <mxGeometry x="1268" y="1570" width="116" height="60" as="geometry" />
        </mxCell>
        <mxCell id="FCQOrwYPSLoCCznjD-UI-99" value="UC24.1.1&lt;div&gt;E-posta İle Şifre Sıfırlama&lt;/div&gt;" style="ellipse;whiteSpace=wrap;html=1;" vertex="1" parent="GZcs-82NvciUyBs2JlbP-517">
          <mxGeometry x="1402" y="1570" width="116" height="60" as="geometry" />
        </mxCell>
        <mxCell id="FCQOrwYPSLoCCznjD-UI-100" value="&amp;lt;&amp;lt;include&amp;gt;&amp;gt;" style="html=1;verticalAlign=bottom;labelBackgroundColor=none;endArrow=open;endFill=0;dashed=1;rounded=0;exitX=0.5;exitY=1;exitDx=0;exitDy=0;entryX=0.5;entryY=0;entryDx=0;entryDy=0;" edge="1" parent="GZcs-82NvciUyBs2JlbP-517" source="FCQOrwYPSLoCCznjD-UI-91" target="FCQOrwYPSLoCCznjD-UI-99">
          <mxGeometry width="160" relative="1" as="geometry">
            <mxPoint x="733" y="1653" as="sourcePoint" />
            <mxPoint x="682" y="1704" as="targetPoint" />
          </mxGeometry>
        </mxCell>
        <mxCell id="FCQOrwYPSLoCCznjD-UI-101" value="&amp;lt;&amp;lt;extend&amp;gt;&amp;gt;" style="html=1;verticalAlign=bottom;labelBackgroundColor=none;endArrow=open;endFill=0;dashed=1;rounded=0;exitX=0.5;exitY=0;exitDx=0;exitDy=0;entryX=0;entryY=1;entryDx=0;entryDy=0;" edge="1" parent="GZcs-82NvciUyBs2JlbP-517" source="FCQOrwYPSLoCCznjD-UI-98" target="FCQOrwYPSLoCCznjD-UI-91">
          <mxGeometry width="160" relative="1" as="geometry">
            <mxPoint x="759" y="1595" as="sourcePoint" />
            <mxPoint x="1237" y="1422" as="targetPoint" />
          </mxGeometry>
        </mxCell>
        <mxCell id="FCQOrwYPSLoCCznjD-UI-102" value="&lt;div&gt;&lt;span style=&quot;background-color: transparent; color: light-dark(rgb(0, 0, 0), rgb(255, 255, 255));&quot;&gt;Kimlik Doğrulaması&lt;/span&gt;&lt;/div&gt;" style="ellipse;whiteSpace=wrap;html=1;" vertex="1" parent="GZcs-82NvciUyBs2JlbP-517">
          <mxGeometry x="1198" y="1360" width="116" height="60" as="geometry" />
        </mxCell>
        <mxCell id="FCQOrwYPSLoCCznjD-UI-103" value="&lt;b&gt;UC20- İçerik üreticisi profili oluşturma&lt;br&gt;&lt;/b&gt;" style="ellipse;whiteSpace=wrap;html=1;strokeWidth=3;" vertex="1" parent="GZcs-82NvciUyBs2JlbP-517">
          <mxGeometry x="576" y="1565" width="140" height="70" as="geometry" />
        </mxCell>
        <mxCell id="FCQOrwYPSLoCCznjD-UI-104" value="UC20.3&lt;div&gt;Profil bilgilerini düzenleme&lt;br&gt;&lt;div&gt;&lt;br&gt;&lt;/div&gt;&lt;/div&gt;" style="ellipse;whiteSpace=wrap;html=1;" vertex="1" parent="GZcs-82NvciUyBs2JlbP-517">
          <mxGeometry x="460" y="1490" width="116" height="60" as="geometry" />
        </mxCell>
        <mxCell id="FCQOrwYPSLoCCznjD-UI-105" value="UC20.2&lt;div&gt;Şarkı/podcast istatistiklerini görüntüleme&lt;br&gt;&lt;div&gt;&lt;br&gt;&lt;/div&gt;&lt;/div&gt;" style="ellipse;whiteSpace=wrap;html=1;" vertex="1" parent="GZcs-82NvciUyBs2JlbP-517">
          <mxGeometry x="650" y="1450" width="130" height="70" as="geometry" />
        </mxCell>
        <mxCell id="FCQOrwYPSLoCCznjD-UI-106" value="UC20.1&lt;div&gt;Dinleyici kitlesini&amp;nbsp;&lt;/div&gt;&lt;div&gt;analiz et&lt;br&gt;&lt;div&gt;&lt;br&gt;&lt;/div&gt;&lt;/div&gt;" style="ellipse;whiteSpace=wrap;html=1;" vertex="1" parent="GZcs-82NvciUyBs2JlbP-517">
          <mxGeometry x="740" y="1510" width="130" height="70" as="geometry" />
        </mxCell>
        <mxCell id="FCQOrwYPSLoCCznjD-UI-107" value="&amp;lt;&amp;lt;extend&amp;gt;&amp;gt;" style="html=1;verticalAlign=bottom;labelBackgroundColor=none;endArrow=open;endFill=0;dashed=1;rounded=0;exitX=1;exitY=1;exitDx=0;exitDy=0;entryX=0;entryY=0;entryDx=0;entryDy=0;" edge="1" parent="GZcs-82NvciUyBs2JlbP-517" source="FCQOrwYPSLoCCznjD-UI-104" target="FCQOrwYPSLoCCznjD-UI-103">
          <mxGeometry width="160" relative="1" as="geometry">
            <mxPoint x="534" y="1400" as="sourcePoint" />
            <mxPoint x="556" y="1492" as="targetPoint" />
          </mxGeometry>
        </mxCell>
        <mxCell id="FCQOrwYPSLoCCznjD-UI-108" value="&amp;lt;&amp;lt;extend&amp;gt;&amp;gt;" style="html=1;verticalAlign=bottom;labelBackgroundColor=none;endArrow=open;endFill=0;dashed=1;rounded=0;exitX=0.5;exitY=1;exitDx=0;exitDy=0;entryX=0.653;entryY=0.051;entryDx=0;entryDy=0;entryPerimeter=0;" edge="1" parent="GZcs-82NvciUyBs2JlbP-517" source="FCQOrwYPSLoCCznjD-UI-105" target="FCQOrwYPSLoCCznjD-UI-103">
          <mxGeometry width="160" relative="1" as="geometry">
            <mxPoint x="742" y="1480" as="sourcePoint" />
            <mxPoint x="742" y="1570" as="targetPoint" />
          </mxGeometry>
        </mxCell>
        <mxCell id="FCQOrwYPSLoCCznjD-UI-109" value="&amp;lt;&amp;lt;extend&amp;gt;&amp;gt;" style="html=1;verticalAlign=bottom;labelBackgroundColor=none;endArrow=open;endFill=0;dashed=1;rounded=0;exitX=0;exitY=1;exitDx=0;exitDy=0;entryX=1;entryY=0.5;entryDx=0;entryDy=0;" edge="1" parent="GZcs-82NvciUyBs2JlbP-517" source="FCQOrwYPSLoCCznjD-UI-106" target="FCQOrwYPSLoCCznjD-UI-103">
          <mxGeometry width="160" relative="1" as="geometry">
            <mxPoint x="841" y="1494" as="sourcePoint" />
            <mxPoint x="763" y="1574" as="targetPoint" />
          </mxGeometry>
        </mxCell>
        <mxCell id="GZcs-82NvciUyBs2JlbP-201" value="UC6.2.1&lt;div&gt;Müzik/Podcast indirme&lt;/div&gt;" style="ellipse;whiteSpace=wrap;html=1;" parent="GZcs-82NvciUyBs2JlbP-517" vertex="1">
          <mxGeometry x="560" y="1300" width="116" height="60" as="geometry" />
        </mxCell>
        <mxCell id="GZcs-82NvciUyBs2JlbP-200" value="UC6.2&lt;div&gt;Çevrimdışı Müzik ve Podcast Dinleme&lt;/div&gt;" style="ellipse;whiteSpace=wrap;html=1;" parent="GZcs-82NvciUyBs2JlbP-517" vertex="1">
          <mxGeometry x="460" y="1215" width="116" height="60" as="geometry" />
        </mxCell>
        <mxCell id="GZcs-82NvciUyBs2JlbP-204" value="&amp;lt;&amp;lt;include&amp;gt;&amp;gt;" style="html=1;verticalAlign=bottom;labelBackgroundColor=none;endArrow=open;endFill=0;dashed=1;rounded=0;exitX=0.75;exitY=0.954;exitDx=0;exitDy=0;entryX=0.098;entryY=0.182;entryDx=0;entryDy=0;entryPerimeter=0;exitPerimeter=0;" parent="GZcs-82NvciUyBs2JlbP-517" source="GZcs-82NvciUyBs2JlbP-200" target="GZcs-82NvciUyBs2JlbP-201" edge="1">
          <mxGeometry x="0.0054" width="160" relative="1" as="geometry">
            <mxPoint x="573" y="1510" as="sourcePoint" />
            <mxPoint x="583" y="1610" as="targetPoint" />
            <mxPoint as="offset" />
          </mxGeometry>
        </mxCell>
        <mxCell id="FCQOrwYPSLoCCznjD-UI-119" value="&lt;b&gt;UC26- Playlist Performans analiz et&lt;br&gt;&lt;/b&gt;" style="ellipse;whiteSpace=wrap;html=1;strokeWidth=3;" vertex="1" parent="GZcs-82NvciUyBs2JlbP-517">
          <mxGeometry x="820" y="1290" width="140" height="70" as="geometry" />
        </mxCell>
        <mxCell id="FCQOrwYPSLoCCznjD-UI-120" value="UC26.1&lt;div&gt;Playlist Verilerine Erişim&lt;/div&gt;" style="ellipse;whiteSpace=wrap;html=1;" vertex="1" parent="GZcs-82NvciUyBs2JlbP-517">
          <mxGeometry x="606" y="1190" width="130" height="70" as="geometry" />
        </mxCell>
        <mxCell id="FCQOrwYPSLoCCznjD-UI-121" value="&amp;lt;&amp;lt;include&amp;gt;&amp;gt;" style="html=1;verticalAlign=bottom;labelBackgroundColor=none;endArrow=open;endFill=0;dashed=1;rounded=0;exitX=0;exitY=0.5;exitDx=0;exitDy=0;entryX=0.5;entryY=1;entryDx=0;entryDy=0;" edge="1" parent="GZcs-82NvciUyBs2JlbP-517" source="FCQOrwYPSLoCCznjD-UI-119" target="FCQOrwYPSLoCCznjD-UI-120">
          <mxGeometry x="-0.0121" width="160" relative="1" as="geometry">
            <mxPoint x="699" y="1260" as="sourcePoint" />
            <mxPoint x="682" y="1210" as="targetPoint" />
            <mxPoint as="offset" />
          </mxGeometry>
        </mxCell>
        <mxCell id="FCQOrwYPSLoCCznjD-UI-122" value="UC26.2&lt;div&gt;Etkileşim Oranlarını Hesaplama&lt;/div&gt;" style="ellipse;whiteSpace=wrap;html=1;" vertex="1" parent="GZcs-82NvciUyBs2JlbP-517">
          <mxGeometry x="640" y="1100" width="130" height="70" as="geometry" />
        </mxCell>
        <mxCell id="FCQOrwYPSLoCCznjD-UI-123" value="&amp;lt;&amp;lt;include&amp;gt;&amp;gt;" style="html=1;verticalAlign=bottom;labelBackgroundColor=none;endArrow=open;endFill=0;dashed=1;rounded=0;exitX=0;exitY=0;exitDx=0;exitDy=0;" edge="1" parent="GZcs-82NvciUyBs2JlbP-517" source="FCQOrwYPSLoCCznjD-UI-119" target="FCQOrwYPSLoCCznjD-UI-122">
          <mxGeometry x="-0.0121" width="160" relative="1" as="geometry">
            <mxPoint x="519" y="1120" as="sourcePoint" />
            <mxPoint x="590" y="1005" as="targetPoint" />
            <mxPoint as="offset" />
          </mxGeometry>
        </mxCell>
        <mxCell id="FCQOrwYPSLoCCznjD-UI-124" value="UC26.3&lt;div&gt;Dinleyici Geri Bildirim Toplama&lt;/div&gt;" style="ellipse;whiteSpace=wrap;html=1;" vertex="1" parent="GZcs-82NvciUyBs2JlbP-517">
          <mxGeometry x="1013" y="1170" width="130" height="70" as="geometry" />
        </mxCell>
        <mxCell id="FCQOrwYPSLoCCznjD-UI-125" value="&amp;lt;&amp;lt;extend&amp;gt;&amp;gt;" style="html=1;verticalAlign=bottom;labelBackgroundColor=none;endArrow=open;endFill=0;dashed=1;rounded=0;exitX=0;exitY=1;exitDx=0;exitDy=0;entryX=1;entryY=0;entryDx=0;entryDy=0;" edge="1" parent="GZcs-82NvciUyBs2JlbP-517" source="FCQOrwYPSLoCCznjD-UI-124" target="FCQOrwYPSLoCCznjD-UI-119">
          <mxGeometry width="160" relative="1" as="geometry">
            <mxPoint x="721" y="1019" as="sourcePoint" />
            <mxPoint x="536" y="1137" as="targetPoint" />
          </mxGeometry>
        </mxCell>
        <mxCell id="FCQOrwYPSLoCCznjD-UI-126" value="UC26.4&lt;div&gt;Etkinlik veya Kampanya Bazlı Performans Analizi&lt;/div&gt;" style="ellipse;whiteSpace=wrap;html=1;" vertex="1" parent="GZcs-82NvciUyBs2JlbP-517">
          <mxGeometry x="916" y="1070" width="130" height="70" as="geometry" />
        </mxCell>
        <mxCell id="FCQOrwYPSLoCCznjD-UI-127" value="&amp;lt;&amp;lt;extend&amp;gt;&amp;gt;" style="html=1;verticalAlign=bottom;labelBackgroundColor=none;endArrow=open;endFill=0;dashed=1;rounded=0;exitX=0.387;exitY=0.968;exitDx=0;exitDy=0;exitPerimeter=0;entryX=0.587;entryY=-0.03;entryDx=0;entryDy=0;entryPerimeter=0;" edge="1" parent="GZcs-82NvciUyBs2JlbP-517" source="FCQOrwYPSLoCCznjD-UI-126" target="FCQOrwYPSLoCCznjD-UI-119">
          <mxGeometry width="160" relative="1" as="geometry">
            <mxPoint x="721" y="1019" as="sourcePoint" />
            <mxPoint x="912" y="1210" as="targetPoint" />
          </mxGeometry>
        </mxCell>
        <mxCell id="FCQOrwYPSLoCCznjD-UI-128" value="UC26.5&lt;div&gt;Zaman Bazlı Performans Analizi&lt;/div&gt;" style="ellipse;whiteSpace=wrap;html=1;" vertex="1" parent="GZcs-82NvciUyBs2JlbP-517">
          <mxGeometry x="780" y="1050" width="130" height="70" as="geometry" />
        </mxCell>
        <mxCell id="FCQOrwYPSLoCCznjD-UI-129" value="&amp;lt;&amp;lt;include&amp;gt;&amp;gt;" style="html=1;verticalAlign=bottom;labelBackgroundColor=none;endArrow=open;endFill=0;dashed=1;rounded=0;exitX=0.316;exitY=0.002;exitDx=0;exitDy=0;entryX=0.566;entryY=0.985;entryDx=0;entryDy=0;entryPerimeter=0;exitPerimeter=0;" edge="1" parent="GZcs-82NvciUyBs2JlbP-517" source="FCQOrwYPSLoCCznjD-UI-119" target="FCQOrwYPSLoCCznjD-UI-128">
          <mxGeometry x="-0.0121" width="160" relative="1" as="geometry">
            <mxPoint x="519" y="1120" as="sourcePoint" />
            <mxPoint x="590" y="1005" as="targetPoint" />
            <mxPoint as="offset" />
          </mxGeometry>
        </mxCell>
        <mxCell id="FCQOrwYPSLoCCznjD-UI-130" value="&lt;b&gt;UC25- Konser ve Etkinlik bilgisi ekleme&lt;br&gt;&lt;/b&gt;" style="ellipse;whiteSpace=wrap;html=1;strokeWidth=3;" vertex="1" parent="GZcs-82NvciUyBs2JlbP-517">
          <mxGeometry x="1006" y="1550" width="140" height="70" as="geometry" />
        </mxCell>
        <mxCell id="FCQOrwYPSLoCCznjD-UI-131" value="UC25.1&lt;div&gt;Etkinlik detaylarının girilmesi&lt;/div&gt;" style="ellipse;whiteSpace=wrap;html=1;" vertex="1" parent="GZcs-82NvciUyBs2JlbP-517">
          <mxGeometry x="940" y="1370" width="130" height="70" as="geometry" />
        </mxCell>
        <mxCell id="FCQOrwYPSLoCCznjD-UI-132" value="UC25.2&lt;div&gt;Etkinliğin yayınlanması&lt;/div&gt;" style="ellipse;whiteSpace=wrap;html=1;" vertex="1" parent="GZcs-82NvciUyBs2JlbP-517">
          <mxGeometry x="1028" y="1295" width="130" height="70" as="geometry" />
        </mxCell>
        <mxCell id="FCQOrwYPSLoCCznjD-UI-133" value="&amp;lt;&amp;lt;include&amp;gt;&amp;gt;" style="html=1;verticalAlign=bottom;labelBackgroundColor=none;endArrow=open;endFill=0;dashed=1;rounded=0;exitX=0.252;exitY=0.02;exitDx=0;exitDy=0;entryX=0.5;entryY=1;entryDx=0;entryDy=0;exitPerimeter=0;" edge="1" parent="GZcs-82NvciUyBs2JlbP-517" source="FCQOrwYPSLoCCznjD-UI-130" target="FCQOrwYPSLoCCznjD-UI-131">
          <mxGeometry x="-0.0121" width="160" relative="1" as="geometry">
            <mxPoint x="1034" y="1455" as="sourcePoint" />
            <mxPoint x="1016" y="1390" as="targetPoint" />
            <mxPoint as="offset" />
          </mxGeometry>
        </mxCell>
        <mxCell id="FCQOrwYPSLoCCznjD-UI-134" value="&amp;lt;&amp;lt;include&amp;gt;&amp;gt;" style="html=1;verticalAlign=bottom;labelBackgroundColor=none;endArrow=open;endFill=0;dashed=1;rounded=0;exitX=0.671;exitY=0;exitDx=0;exitDy=0;exitPerimeter=0;" edge="1" parent="GZcs-82NvciUyBs2JlbP-517" source="FCQOrwYPSLoCCznjD-UI-130" target="FCQOrwYPSLoCCznjD-UI-132">
          <mxGeometry x="-0.0121" width="160" relative="1" as="geometry">
            <mxPoint x="1073.21" y="1549.76" as="sourcePoint" />
            <mxPoint x="1078.7800000000002" y="1274.9999999999998" as="targetPoint" />
            <mxPoint as="offset" />
          </mxGeometry>
        </mxCell>
        <mxCell id="FCQOrwYPSLoCCznjD-UI-135" value="UC25.3&lt;div&gt;Etkinliğe özel&amp;nbsp;&lt;/div&gt;&lt;div&gt;içerik ekle&lt;/div&gt;" style="ellipse;whiteSpace=wrap;html=1;" vertex="1" parent="GZcs-82NvciUyBs2JlbP-517">
          <mxGeometry x="1113" y="1420" width="130" height="70" as="geometry" />
        </mxCell>
        <mxCell id="FCQOrwYPSLoCCznjD-UI-136" value="&amp;lt;&amp;lt;extend&amp;gt;&amp;gt;" style="html=1;verticalAlign=bottom;labelBackgroundColor=none;endArrow=open;endFill=0;dashed=1;rounded=0;exitX=0.5;exitY=1;exitDx=0;exitDy=0;entryX=1;entryY=0;entryDx=0;entryDy=0;" edge="1" parent="GZcs-82NvciUyBs2JlbP-517" source="FCQOrwYPSLoCCznjD-UI-135" target="FCQOrwYPSLoCCznjD-UI-130">
          <mxGeometry width="160" relative="1" as="geometry">
            <mxPoint x="864" y="1290" as="sourcePoint" />
            <mxPoint x="886" y="1382" as="targetPoint" />
          </mxGeometry>
        </mxCell>
        <mxCell id="GZcs-82NvciUyBs2JlbP-518" value="" style="endArrow=none;html=1;rounded=0;exitX=1;exitY=1;exitDx=0;exitDy=0;exitPerimeter=0;entryX=0;entryY=0.5;entryDx=0;entryDy=0;fontStyle=1" parent="1" target="GZcs-82NvciUyBs2JlbP-215" edge="1">
          <mxGeometry width="50" height="50" relative="1" as="geometry">
            <mxPoint x="-300" y="990" as="sourcePoint" />
            <mxPoint x="-108" y="1225" as="targetPoint" />
            <Array as="points">
              <mxPoint x="-300" y="1180" />
              <mxPoint x="-300" y="1520" />
            </Array>
          </mxGeometry>
        </mxCell>
        <mxCell id="GZcs-82NvciUyBs2JlbP-520" value="" style="endArrow=none;html=1;rounded=0;exitX=1;exitY=1;exitDx=0;exitDy=0;exitPerimeter=0;entryX=0;entryY=0.5;entryDx=0;entryDy=0;fontStyle=1" parent="1" target="GZcs-82NvciUyBs2JlbP-198" edge="1">
          <mxGeometry width="50" height="50" relative="1" as="geometry">
            <mxPoint x="-110" y="990" as="sourcePoint" />
            <mxPoint x="272" y="1520" as="targetPoint" />
            <Array as="points">
              <mxPoint x="-110" y="1225" />
            </Array>
          </mxGeometry>
        </mxCell>
        <mxCell id="GZcs-82NvciUyBs2JlbP-526" value="" style="endArrow=none;html=1;rounded=0;exitX=1;exitY=0.3333333333333333;exitDx=0;exitDy=0;exitPerimeter=0;entryX=0;entryY=0.5;entryDx=0;entryDy=0;" parent="1" source="GZcs-82NvciUyBs2JlbP-273" target="GZcs-82NvciUyBs2JlbP-261" edge="1">
          <mxGeometry width="50" height="50" relative="1" as="geometry">
            <mxPoint x="-110" y="735" as="sourcePoint" />
            <mxPoint x="-60" y="685" as="targetPoint" />
            <Array as="points">
              <mxPoint x="-50" y="700" />
              <mxPoint x="-50" y="870" />
              <mxPoint x="-50" y="1065" />
            </Array>
          </mxGeometry>
        </mxCell>
        <mxCell id="GZcs-82NvciUyBs2JlbP-527" style="edgeStyle=orthogonalEdgeStyle;rounded=0;orthogonalLoop=1;jettySize=auto;html=1;exitX=0.5;exitY=0;exitDx=0;exitDy=0;exitPerimeter=0;entryX=0;entryY=1;entryDx=0;entryDy=0;entryPerimeter=0;" parent="1" source="GZcs-82NvciUyBs2JlbP-271" target="GZcs-82NvciUyBs2JlbP-273" edge="1">
          <mxGeometry relative="1" as="geometry" />
        </mxCell>
        <mxCell id="GZcs-82NvciUyBs2JlbP-528" style="edgeStyle=orthogonalEdgeStyle;rounded=0;orthogonalLoop=1;jettySize=auto;html=1;exitX=0.5;exitY=0;exitDx=0;exitDy=0;exitPerimeter=0;entryX=1;entryY=1;entryDx=0;entryDy=0;entryPerimeter=0;" parent="1" source="GZcs-82NvciUyBs2JlbP-270" target="GZcs-82NvciUyBs2JlbP-273" edge="1">
          <mxGeometry relative="1" as="geometry" />
        </mxCell>
        <mxCell id="GZcs-82NvciUyBs2JlbP-529" value="" style="endArrow=none;html=1;rounded=0;entryX=0;entryY=0;entryDx=0;entryDy=0;" parent="1" source="GZcs-82NvciUyBs2JlbP-273" target="GZcs-82NvciUyBs2JlbP-233" edge="1">
          <mxGeometry width="50" height="50" relative="1" as="geometry">
            <mxPoint x="-20" y="1010" as="sourcePoint" />
            <mxPoint x="-30" y="820" as="targetPoint" />
            <Array as="points">
              <mxPoint x="-80" y="725" />
              <mxPoint x="-80" y="860" />
            </Array>
          </mxGeometry>
        </mxCell>
        <mxCell id="GZcs-82NvciUyBs2JlbP-531" value="" style="endArrow=none;html=1;rounded=0;exitX=0.5;exitY=0;exitDx=0;exitDy=0;exitPerimeter=0;entryX=0;entryY=0.5;entryDx=0;entryDy=0;" parent="1" source="GZcs-82NvciUyBs2JlbP-273" target="GZcs-82NvciUyBs2JlbP-18" edge="1">
          <mxGeometry width="50" height="50" relative="1" as="geometry">
            <mxPoint y="590" as="sourcePoint" />
            <mxPoint x="-240" y="160" as="targetPoint" />
            <Array as="points">
              <mxPoint x="-240" y="175" />
            </Array>
          </mxGeometry>
        </mxCell>
        <mxCell id="GZcs-82NvciUyBs2JlbP-532" value="" style="endArrow=none;html=1;rounded=0;entryX=0;entryY=0.5;entryDx=0;entryDy=0;exitX=0.75;exitY=0.1;exitDx=0;exitDy=0;exitPerimeter=0;" parent="1" source="GZcs-82NvciUyBs2JlbP-273" target="GZcs-82NvciUyBs2JlbP-29" edge="1">
          <mxGeometry width="50" height="50" relative="1" as="geometry">
            <mxPoint x="-220" y="640" as="sourcePoint" />
            <mxPoint x="50" y="540" as="targetPoint" />
            <Array as="points">
              <mxPoint x="-220" y="305" />
            </Array>
          </mxGeometry>
        </mxCell>
        <mxCell id="GZcs-82NvciUyBs2JlbP-533" value="" style="endArrow=none;html=1;rounded=0;entryX=0;entryY=1;entryDx=0;entryDy=0;" parent="1" target="GZcs-82NvciUyBs2JlbP-252" edge="1">
          <mxGeometry width="50" height="50" relative="1" as="geometry">
            <mxPoint x="-260" y="670" as="sourcePoint" />
            <mxPoint x="50" y="540" as="targetPoint" />
            <Array as="points">
              <mxPoint x="-260" y="430" />
            </Array>
          </mxGeometry>
        </mxCell>
        <mxCell id="FCQOrwYPSLoCCznjD-UI-1" value="Reklam Veren" style="shape=umlActor;verticalLabelPosition=bottom;verticalAlign=top;html=1;outlineConnect=0;" vertex="1" parent="1">
          <mxGeometry x="-180" y="1530" width="70" height="150" as="geometry" />
        </mxCell>
        <mxCell id="FCQOrwYPSLoCCznjD-UI-2" value="" style="endArrow=none;html=1;rounded=0;exitX=0.75;exitY=0.1;exitDx=0;exitDy=0;exitPerimeter=0;entryX=0;entryY=1;entryDx=0;entryDy=0;" edge="1" parent="1" source="FCQOrwYPSLoCCznjD-UI-1" target="GZcs-82NvciUyBs2JlbP-215">
          <mxGeometry width="50" height="50" relative="1" as="geometry">
            <mxPoint x="280" y="1380" as="sourcePoint" />
            <mxPoint x="330" y="1330" as="targetPoint" />
          </mxGeometry>
        </mxCell>
        <mxCell id="FCQOrwYPSLoCCznjD-UI-75" value="Distribütör&lt;div&gt;&lt;br&gt;&lt;/div&gt;" style="shape=umlActor;verticalLabelPosition=bottom;verticalAlign=top;html=1;outlineConnect=0;" vertex="1" parent="1">
          <mxGeometry x="1600" y="130" width="70" height="150" as="geometry" />
        </mxCell>
        <mxCell id="FCQOrwYPSLoCCznjD-UI-80" value="" style="endArrow=none;html=1;rounded=0;entryX=0.25;entryY=0.1;entryDx=0;entryDy=0;entryPerimeter=0;exitX=1;exitY=0.5;exitDx=0;exitDy=0;" edge="1" parent="1" source="FCQOrwYPSLoCCznjD-UI-34" target="FCQOrwYPSLoCCznjD-UI-75">
          <mxGeometry width="50" height="50" relative="1" as="geometry">
            <mxPoint x="1350" y="430" as="sourcePoint" />
            <mxPoint x="1400" y="380" as="targetPoint" />
          </mxGeometry>
        </mxCell>
        <mxCell id="FCQOrwYPSLoCCznjD-UI-137" value="" style="endArrow=none;html=1;rounded=0;entryX=0;entryY=1;entryDx=0;entryDy=0;entryPerimeter=0;exitX=0.805;exitY=0.055;exitDx=0;exitDy=0;exitPerimeter=0;" edge="1" parent="1" source="FCQOrwYPSLoCCznjD-UI-21" target="FCQOrwYPSLoCCznjD-UI-75">
          <mxGeometry width="50" height="50" relative="1" as="geometry">
            <mxPoint x="1490" y="290" as="sourcePoint" />
            <mxPoint x="1540" y="240" as="targetPoint" />
          </mxGeometry>
        </mxCell>
        <mxCell id="FCQOrwYPSLoCCznjD-UI-138" value="" style="endArrow=none;html=1;rounded=0;entryX=0;entryY=1;entryDx=0;entryDy=0;entryPerimeter=0;exitX=1;exitY=0.5;exitDx=0;exitDy=0;" edge="1" parent="1" source="FCQOrwYPSLoCCznjD-UI-3" target="FCQOrwYPSLoCCznjD-UI-75">
          <mxGeometry width="50" height="50" relative="1" as="geometry">
            <mxPoint x="1600" y="460" as="sourcePoint" />
            <mxPoint x="1660" y="330" as="targetPoint" />
            <Array as="points">
              <mxPoint x="1600" y="455" />
            </Array>
          </mxGeometry>
        </mxCell>
        <mxCell id="FCQOrwYPSLoCCznjD-UI-139" value="" style="endArrow=none;html=1;rounded=0;exitX=1;exitY=0;exitDx=0;exitDy=0;" edge="1" parent="1" source="FCQOrwYPSLoCCznjD-UI-59" target="FCQOrwYPSLoCCznjD-UI-75">
          <mxGeometry width="50" height="50" relative="1" as="geometry">
            <mxPoint x="1620" y="415" as="sourcePoint" />
            <mxPoint x="1670" y="365" as="targetPoint" />
            <Array as="points">
              <mxPoint x="1635" y="740" />
            </Array>
          </mxGeometry>
        </mxCell>
        <mxCell id="FCQOrwYPSLoCCznjD-UI-140" value="" style="endArrow=none;html=1;rounded=0;entryX=1;entryY=1;entryDx=0;entryDy=0;entryPerimeter=0;exitX=1;exitY=0;exitDx=0;exitDy=0;" edge="1" parent="1" source="FCQOrwYPSLoCCznjD-UI-68" target="FCQOrwYPSLoCCznjD-UI-75">
          <mxGeometry width="50" height="50" relative="1" as="geometry">
            <mxPoint x="1670" y="1030" as="sourcePoint" />
            <mxPoint x="1690" y="460" as="targetPoint" />
            <Array as="points">
              <mxPoint x="1670" y="1020" />
            </Array>
          </mxGeometry>
        </mxCell>
        <mxCell id="FCQOrwYPSLoCCznjD-UI-141" value="" style="endArrow=none;html=1;rounded=0;entryX=0;entryY=0;entryDx=0;entryDy=0;" edge="1" parent="1" target="GZcs-82NvciUyBs2JlbP-173">
          <mxGeometry width="50" height="50" relative="1" as="geometry">
            <mxPoint x="-200" y="770.003417721519" as="sourcePoint" />
            <mxPoint x="160" y="820.13" as="targetPoint" />
            <Array as="points">
              <mxPoint x="-30" y="770" />
              <mxPoint x="-30" y="910" />
            </Array>
          </mxGeometry>
        </mxCell>
        <mxCell id="FCQOrwYPSLoCCznjD-UI-142" value="" style="endArrow=none;html=1;rounded=0;entryX=0.167;entryY=0.132;entryDx=0;entryDy=0;entryPerimeter=0;" edge="1" parent="1" target="GZcs-82NvciUyBs2JlbP-138">
          <mxGeometry width="50" height="50" relative="1" as="geometry">
            <mxPoint x="-200" y="679.9955650805078" as="sourcePoint" />
            <mxPoint x="100.50252531694173" y="483.1712626584709" as="targetPoint" />
            <Array as="points">
              <mxPoint x="-200" y="504" />
            </Array>
          </mxGeometry>
        </mxCell>
        <mxCell id="FCQOrwYPSLoCCznjD-UI-143" value="Distribütör&lt;div&gt;&lt;br&gt;&lt;/div&gt;" style="shape=umlActor;verticalLabelPosition=bottom;verticalAlign=top;html=1;outlineConnect=0;" vertex="1" parent="1">
          <mxGeometry x="1410" y="1700" width="70" height="150" as="geometry" />
        </mxCell>
        <mxCell id="FCQOrwYPSLoCCznjD-UI-144" value="Distribütör&lt;div&gt;&lt;br&gt;&lt;/div&gt;" style="shape=umlActor;verticalLabelPosition=bottom;verticalAlign=top;html=1;outlineConnect=0;" vertex="1" parent="1">
          <mxGeometry x="1290" y="1850" width="70" height="150" as="geometry" />
        </mxCell>
        <mxCell id="FCQOrwYPSLoCCznjD-UI-145" value="Distribütör&lt;div&gt;&lt;br&gt;&lt;/div&gt;" style="shape=umlActor;verticalLabelPosition=bottom;verticalAlign=top;html=1;outlineConnect=0;" vertex="1" parent="1">
          <mxGeometry x="1540" y="1850" width="70" height="150" as="geometry" />
        </mxCell>
        <mxCell id="FCQOrwYPSLoCCznjD-UI-148" style="edgeStyle=orthogonalEdgeStyle;rounded=0;orthogonalLoop=1;jettySize=auto;html=1;exitX=1;exitY=0.3333333333333333;exitDx=0;exitDy=0;exitPerimeter=0;entryX=0;entryY=1;entryDx=0;entryDy=0;entryPerimeter=0;" edge="1" parent="1" source="FCQOrwYPSLoCCznjD-UI-144" target="FCQOrwYPSLoCCznjD-UI-143">
          <mxGeometry relative="1" as="geometry" />
        </mxCell>
        <mxCell id="FCQOrwYPSLoCCznjD-UI-149" style="edgeStyle=orthogonalEdgeStyle;rounded=0;orthogonalLoop=1;jettySize=auto;html=1;exitX=0;exitY=0.3333333333333333;exitDx=0;exitDy=0;exitPerimeter=0;entryX=1;entryY=1;entryDx=0;entryDy=0;entryPerimeter=0;" edge="1" parent="1" source="FCQOrwYPSLoCCznjD-UI-145" target="FCQOrwYPSLoCCznjD-UI-143">
          <mxGeometry relative="1" as="geometry" />
        </mxCell>
        <mxCell id="FCQOrwYPSLoCCznjD-UI-150" value="" style="endArrow=none;html=1;rounded=0;exitX=0.5;exitY=1;exitDx=0;exitDy=0;" edge="1" parent="1" source="FCQOrwYPSLoCCznjD-UI-119">
          <mxGeometry width="50" height="50" relative="1" as="geometry">
            <mxPoint x="1275" y="1790" as="sourcePoint" />
            <mxPoint x="1410" y="1780" as="targetPoint" />
            <Array as="points">
              <mxPoint x="890" y="1780" />
            </Array>
          </mxGeometry>
        </mxCell>
        <mxCell id="FCQOrwYPSLoCCznjD-UI-151" value="" style="endArrow=none;html=1;rounded=0;entryX=0;entryY=0.3333333333333333;entryDx=0;entryDy=0;entryPerimeter=0;exitX=0.5;exitY=1;exitDx=0;exitDy=0;" edge="1" parent="1" source="FCQOrwYPSLoCCznjD-UI-103" target="FCQOrwYPSLoCCznjD-UI-143">
          <mxGeometry width="50" height="50" relative="1" as="geometry">
            <mxPoint x="1180" y="1750" as="sourcePoint" />
            <mxPoint x="1230" y="1700" as="targetPoint" />
            <Array as="points">
              <mxPoint x="646" y="1750" />
            </Array>
          </mxGeometry>
        </mxCell>
        <mxCell id="FCQOrwYPSLoCCznjD-UI-152" value="" style="endArrow=none;html=1;rounded=0;entryX=0.25;entryY=0.1;entryDx=0;entryDy=0;entryPerimeter=0;exitX=0.5;exitY=1;exitDx=0;exitDy=0;" edge="1" parent="1" source="FCQOrwYPSLoCCznjD-UI-130" target="FCQOrwYPSLoCCznjD-UI-143">
          <mxGeometry width="50" height="50" relative="1" as="geometry">
            <mxPoint x="1110" y="1830" as="sourcePoint" />
            <mxPoint x="1160" y="1780" as="targetPoint" />
            <Array as="points">
              <mxPoint x="1076" y="1715" />
            </Array>
          </mxGeometry>
        </mxCell>
        <mxCell id="FCQOrwYPSLoCCznjD-UI-153" value="" style="endArrow=none;html=1;rounded=0;exitX=1;exitY=0.5;exitDx=0;exitDy=0;entryX=0.75;entryY=0.1;entryDx=0;entryDy=0;entryPerimeter=0;" edge="1" parent="1" source="FCQOrwYPSLoCCznjD-UI-90" target="FCQOrwYPSLoCCznjD-UI-143">
          <mxGeometry width="50" height="50" relative="1" as="geometry">
            <mxPoint x="1630" y="1580" as="sourcePoint" />
            <mxPoint x="1680" y="1530" as="targetPoint" />
            <Array as="points">
              <mxPoint x="1640" y="1390" />
              <mxPoint x="1640" y="1715" />
            </Array>
          </mxGeometry>
        </mxCell>
        <mxCell id="FCQOrwYPSLoCCznjD-UI-154" value="" style="endArrow=none;html=1;rounded=0;exitX=1;exitY=0.3333333333333333;exitDx=0;exitDy=0;exitPerimeter=0;entryX=1;entryY=0.5;entryDx=0;entryDy=0;" edge="1" parent="1" source="FCQOrwYPSLoCCznjD-UI-143" target="FCQOrwYPSLoCCznjD-UI-81">
          <mxGeometry width="50" height="50" relative="1" as="geometry">
            <mxPoint x="1580" y="1740" as="sourcePoint" />
            <mxPoint x="1630" y="1690" as="targetPoint" />
            <Array as="points">
              <mxPoint x="1710" y="1750" />
              <mxPoint x="1710" y="1175" />
            </Array>
          </mxGeometry>
        </mxCell>
        <mxCell id="FCQOrwYPSLoCCznjD-UI-428" value="&lt;b&gt;Use Case Adı: UC8.7 - Blend Oluşturma&lt;/b&gt;&lt;div&gt;&lt;br&gt;&lt;div&gt;&lt;div style=&quot;text-align: left;&quot;&gt;&lt;b&gt;Aktörler:&lt;/b&gt;&lt;span style=&quot;background-color: transparent; color: light-dark(rgb(0, 0, 0), rgb(255, 255, 255));&quot;&gt;Spotify Sistemi,&lt;/span&gt;&lt;span style=&quot;background-color: transparent; color: light-dark(rgb(0, 0, 0), rgb(255, 255, 255));&quot;&gt;Dinleyici&lt;/span&gt;&lt;/div&gt;&lt;/div&gt;&lt;div&gt;&lt;div style=&quot;text-align: left;&quot;&gt;&lt;b&gt;Ön Koşullar:&lt;/b&gt;&lt;/div&gt;&lt;div style=&quot;text-align: left;&quot;&gt;&lt;span style=&quot;background-color: transparent; color: light-dark(rgb(0, 0, 0), rgb(255, 255, 255));&quot;&gt;- Kullanıcı sistemde oturum açmış olmalıdır&lt;/span&gt;&lt;/div&gt;&lt;/div&gt;&lt;div&gt;&lt;div style=&quot;text-align: left;&quot;&gt;- İnternet bağlantısı aktif olmalıdır.&lt;/div&gt;&lt;/div&gt;&lt;div&gt;&lt;div style=&quot;text-align: left;&quot;&gt;&lt;b&gt;Temel Akış:&lt;/b&gt;&lt;/div&gt;&lt;/div&gt;&lt;div&gt;&lt;div style=&quot;text-align: left;&quot;&gt;1. Kullanıcı, uygulama arayüzünde &quot;Blend Oluştur&quot; seçeneğine tıklar.&lt;/div&gt;&lt;/div&gt;&lt;div&gt;&lt;div style=&quot;text-align: left;&quot;&gt;2. Sistem, kullanıcıya Blend için bir arkadaş davet etme ekranı sunar.&lt;/div&gt;&lt;/div&gt;&lt;div&gt;&lt;div style=&quot;text-align: left;&quot;&gt;3. Kullanıcı, davet etmek istediği bir veya daha fazla arkadaşını seçer.&lt;/div&gt;&lt;/div&gt;&lt;div&gt;&lt;div style=&quot;text-align: left;&quot;&gt;4. Sistem, seçilen arkadaşlara bir davet bağlantısı gönderir.&lt;/div&gt;&lt;/div&gt;&lt;div&gt;&lt;div style=&quot;text-align: left;&quot;&gt;5. Davet edilen arkadaşlar, bağlantıya tıklayarak Blend’e katılmayı onaylar.&lt;/div&gt;&lt;/div&gt;&lt;div&gt;&lt;div style=&quot;text-align: left;&quot;&gt;6. Sistem, tüm katılımcıların müzik zevklerini (dinleme geçmişi, favori şarkılar) analiz eder.&lt;/div&gt;&lt;/div&gt;&lt;div&gt;&lt;div style=&quot;text-align: left;&quot;&gt;7. Sistem, katılımcıların zevklerine uygun ortak bir Blend çalma listesi oluşturur.&amp;nbsp;&lt;/div&gt;&lt;/div&gt;&lt;div&gt;&lt;div style=&quot;text-align: left;&quot;&gt;8. Sistem, Blend çalma listesini tüm katılımcıların profiline ekler ve &quot;Blend hazır&quot; bildirimini gönderir.&lt;/div&gt;&lt;/div&gt;&lt;div&gt;&lt;div style=&quot;text-align: left;&quot;&gt;&lt;b&gt;Alternatif Akış:&lt;/b&gt;&lt;/div&gt;&lt;/div&gt;&lt;div&gt;&lt;div style=&quot;text-align: left;&quot;&gt;1. Davet edilen arkadaşlar, Blend’e katılmayı reddeder.&lt;/div&gt;&lt;/div&gt;&lt;div&gt;&lt;div style=&quot;text-align: left;&quot;&gt;2. Sistem, yalnızca davet eden kullanıcının zevklerine dayalı bir Blend oluşturur.&lt;/div&gt;&lt;/div&gt;&lt;div&gt;&lt;div style=&quot;text-align: left;&quot;&gt;3. Kullanıcı, mevcut Blend’e başka bir arkadaş eklemek ister ve &quot;Davet Et&quot; seçeneğini seçer.&lt;/div&gt;&lt;/div&gt;&lt;div&gt;&lt;div style=&quot;text-align: left;&quot;&gt;4. Sistem, yeni davet gönderir ve onay alındığında Blend’i günceller.&lt;/div&gt;&lt;/div&gt;&lt;div&gt;&lt;div style=&quot;text-align: left;&quot;&gt;&lt;b&gt;Hata Senaryosu&lt;/b&gt;:&lt;/div&gt;&lt;/div&gt;&lt;div&gt;&lt;div style=&quot;text-align: left;&quot;&gt;- Kullanıcı Premium abone değilse ve Blend Premium bir özellikse, sistem &quot;Bu özellik yalnızca Premium kullanıcılar için kullanılabilir&quot; mesajı gösterir.&lt;/div&gt;&lt;/div&gt;&lt;div&gt;&lt;div style=&quot;text-align: left;&quot;&gt;- İnternet bağlantısı kesilirse, sistem &quot;Bağlantı Hatası&quot; mesajı gösterir ve Blend oluşturma başarısız olur.&lt;/div&gt;&lt;/div&gt;&lt;div&gt;&lt;div style=&quot;text-align: left;&quot;&gt;- Davet edilen arkadaşın hesabı yoksa veya oturum açmamışsa, sistem &quot;Katılımcı oturum açmalı&quot; uyarısı gönderir.&lt;/div&gt;&lt;/div&gt;&lt;div&gt;&lt;br&gt;&lt;/div&gt;&lt;div&gt;&lt;br&gt;&lt;/div&gt;&lt;div&gt;&lt;br&gt;&lt;/div&gt;&lt;/div&gt;" style="text;html=1;align=center;verticalAlign=middle;whiteSpace=wrap;rounded=0;" vertex="1" parent="1">
          <mxGeometry x="-850" width="400" height="520" as="geometry" />
        </mxCell>
        <mxCell id="FCQOrwYPSLoCCznjD-UI-429" value="&lt;b&gt;Use Case Adı: UC16 - Müzik/Podcast Yükleme&lt;/b&gt;&lt;div&gt;&lt;b&gt;&lt;br&gt;&lt;/b&gt;&lt;div&gt;&lt;div style=&quot;text-align: left;&quot;&gt;&lt;b&gt;Aktörler:&lt;/b&gt; Distribütör, spotify sistemi&lt;/div&gt;&lt;/div&gt;&lt;div&gt;&lt;div style=&quot;text-align: left;&quot;&gt;Ön Koşullar:&lt;/div&gt;&lt;/div&gt;&lt;div&gt;&lt;div style=&quot;text-align: left;&quot;&gt;- Distribütör sistemde oturum açmış olmalıdır&lt;/div&gt;&lt;/div&gt;&lt;div&gt;&lt;div style=&quot;text-align: left;&quot;&gt;- Distribitörün içerik yükleme yetkisi olmalıdır&lt;/div&gt;&lt;/div&gt;&lt;div style=&quot;text-align: left;&quot;&gt;-&lt;span style=&quot;background-color: transparent; color: light-dark(rgb(0, 0, 0), rgb(255, 255, 255));&quot;&gt;- Yüklenmek istenen dosya, sistemin desteklediği formatta&amp;nbsp; olmalıdır.&lt;/span&gt;&lt;/div&gt;&lt;div&gt;&lt;div style=&quot;text-align: left;&quot;&gt;&lt;b&gt;Temel Akış:&lt;/b&gt;&lt;/div&gt;&lt;/div&gt;&lt;div&gt;&lt;div style=&quot;text-align: left;&quot;&gt;1. Kullanıcı, uygulama arayüzünde &quot;İçerik Yükle&quot; seçeneğine tıklar.&lt;/div&gt;&lt;/div&gt;&lt;div&gt;&lt;div style=&quot;text-align: left;&quot;&gt;2. Sistem, dosya yükleme ekranını açar ve desteklenen dosya türlerini bildirir.&lt;/div&gt;&lt;/div&gt;&lt;div&gt;&lt;div style=&quot;text-align: left;&quot;&gt;3. Kullanıcı, cihazından bir müzik veya podcast dosyasını seçer ve yükler.&lt;/div&gt;&lt;/div&gt;&lt;div&gt;&lt;div style=&quot;text-align: left;&quot;&gt;4. Sistem, dosyanın formatını ve boyutunu doğrular.&lt;/div&gt;&lt;/div&gt;&lt;div&gt;&lt;div style=&quot;text-align: left;&quot;&gt;5. Kullanıcı, dosya için başlık, açıklama ve kategori gibi meta verileri girer.&lt;/div&gt;&lt;/div&gt;&lt;div&gt;&lt;div style=&quot;text-align: left;&quot;&gt;6. Kullanıcı, &quot;Yükle&quot; butonuna basarak işlemi onaylar.&lt;/div&gt;&lt;/div&gt;&lt;div&gt;&lt;div style=&quot;text-align: left;&quot;&gt;7. Sistem, dosyayı sunucuya yükler ve kullanıcıya &quot;Yükleme Başarılı&quot; mesajı gösterir.&lt;/div&gt;&lt;/div&gt;&lt;div&gt;&lt;div style=&quot;text-align: left;&quot;&gt;8. Sistem, içeriği kullanıcının profiline veya belirlenen dağıtım kanalına ekler.&lt;/div&gt;&lt;/div&gt;&lt;div&gt;&lt;div style=&quot;text-align: left;&quot;&gt;&lt;b&gt;Alternatif Akış:&lt;/b&gt;&lt;/div&gt;&lt;/div&gt;&lt;div&gt;&lt;div style=&quot;text-align: left;&quot;&gt;5a. Kullanıcı, meta veri girişini tamamlamadan &quot;İptal&quot; butonuna basar.&lt;/div&gt;&lt;/div&gt;&lt;div&gt;&lt;div style=&quot;text-align: left;&quot;&gt;6a. Sistem, yükleme işlemini durdurur ve kullanıcıyı ana ekrana yönlendirir.&lt;/div&gt;&lt;/div&gt;&lt;div&gt;&lt;div style=&quot;text-align: left;&quot;&gt;4b. Kullanıcı, yüklemeden önce dosyayı dinlemek ister ve &quot;Önizleme&quot; seçeneğini seçer.&lt;/div&gt;&lt;/div&gt;&lt;div&gt;&lt;div style=&quot;text-align: left;&quot;&gt;&amp;nbsp;5b. Sistem, dosyanın bir kısmını oynatır ve kullanıcıya onaylama seçeneği sunar.&lt;/div&gt;&lt;/div&gt;&lt;div&gt;&lt;div style=&quot;text-align: left;&quot;&gt;&lt;b&gt;Hata Senaryosu:&lt;/b&gt;&lt;/div&gt;&lt;/div&gt;&lt;div&gt;&lt;div style=&quot;text-align: left;&quot;&gt;- Kullanıcı, desteklenmeyen bir dosya türü yüklemeye çalışırsa, sistem &quot;Geçersiz Dosya Formatı&quot; hata mesajı gösterir.&lt;/div&gt;&lt;/div&gt;&lt;div&gt;&lt;div style=&quot;text-align: left;&quot;&gt;- Dosya boyutu sistemin maksimum limitini aşarsa, sistem &quot;Dosya Boyutu Çok Büyük&quot; hata mesajı gösterir.&lt;/div&gt;&lt;/div&gt;&lt;div&gt;&lt;div style=&quot;text-align: left;&quot;&gt;- İnternet bağlantısı kesilirse, sistem &quot;Bağlantı Hatası&quot; mesajı gösterir ve yükleme işlemi başarısız olur.&lt;/div&gt;&lt;/div&gt;&lt;div style=&quot;text-align: left;&quot;&gt;&lt;br&gt;&lt;/div&gt;&lt;/div&gt;" style="text;html=1;align=center;verticalAlign=middle;whiteSpace=wrap;rounded=0;" vertex="1" parent="1">
          <mxGeometry x="-850" y="515" width="460" height="450" as="geometry" />
        </mxCell>
        <mxCell id="FCQOrwYPSLoCCznjD-UI-430" value="&lt;div style=&quot;text-align: center;&quot;&gt;&lt;b&gt;Use Case Adı:&lt;/b&gt; &lt;b&gt;UC8 -&amp;nbsp;&lt;span style=&quot;background-color: transparent; color: light-dark(rgb(0, 0, 0), rgb(255, 255, 255));&quot;&gt;Çalma Listesi Oluşturma&lt;/span&gt;&lt;/b&gt;&lt;/div&gt;&lt;div&gt;&lt;span style=&quot;background-color: transparent; color: light-dark(rgb(0, 0, 0), rgb(255, 255, 255));&quot;&gt;&lt;b&gt;&lt;br&gt;&lt;/b&gt;&lt;/span&gt;&lt;/div&gt;&lt;div&gt;&lt;span style=&quot;background-color: transparent; color: light-dark(rgb(0, 0, 0), rgb(255, 255, 255));&quot;&gt;&lt;b&gt;Aktörler:&lt;/b&gt;&amp;nbsp;&lt;/span&gt;&lt;span style=&quot;background-color: transparent; color: light-dark(rgb(0, 0, 0), rgb(255, 255, 255));&quot;&gt;Dinleyici, Premium Dinleyici, Spotify Sistemi&lt;/span&gt;&lt;/div&gt;&lt;div&gt;&lt;div&gt;&lt;b&gt;Ön Koşullar:&lt;/b&gt;&amp;nbsp;&lt;/div&gt;&lt;/div&gt;&lt;div&gt;-&lt;span style=&quot;background-color: transparent; color: light-dark(rgb(0, 0, 0), rgb(255, 255, 255));&quot;&gt;Kullanıcı sistemde oturum açmış olmalıdır&lt;/span&gt;&lt;/div&gt;&lt;div&gt;&lt;div&gt;&lt;b&gt;Temel Akış:&lt;/b&gt;&lt;/div&gt;&lt;/div&gt;&lt;div&gt;&lt;div&gt;1. Kullanıcı, uygulama arayüzünde &quot;Çalma Listesi Oluştur&quot; seçeneğine tıklar.&lt;/div&gt;&lt;/div&gt;&lt;div&gt;&lt;div&gt;2. Sistem, kullanıcıdan çalma listesi için bir isim girmesini ister.&lt;/div&gt;&lt;/div&gt;&lt;div&gt;&lt;div&gt;3. Kullanıcı, çalma listesi adını girer ve &quot;Oluştur&quot; butonuna basar.&lt;/div&gt;&lt;/div&gt;&lt;div&gt;&lt;div&gt;4. Sistem, boş bir çalma listesi oluşturur ve bunu kullanıcının profilinde görüntüler.&lt;/div&gt;&lt;/div&gt;&lt;div&gt;&lt;div&gt;5. Kullanıcı, mevcut şarkılardan seçim yaparak çalma listesine şarkı ekler.&lt;/div&gt;&lt;/div&gt;&lt;div&gt;&lt;div&gt;6. Sistem, eklenen şarkıları çalma listesine kaydeder ve güncellenmiş listeyi kullanıcıya gösterir.&lt;/div&gt;&lt;/div&gt;&lt;div&gt;&lt;b&gt;Alternatif Akış:&lt;/b&gt;&lt;/div&gt;&lt;div&gt;&lt;div&gt;1. Kullanıcı, çalma listesini boş bırakmayı seçer.&lt;/div&gt;&lt;/div&gt;&lt;div&gt;&lt;div&gt;2. Sistem, boş çalma listesini kaydeder ve kullanıcıya &quot;Şarkı eklemek ister misiniz?&quot; önerisi sunar.&lt;/div&gt;&lt;/div&gt;&lt;div&gt;&lt;div&gt;3 Kullanıcı, çalma listesi oluşturulduktan sonra adını değiştirmek ister.&lt;/div&gt;&lt;/div&gt;&lt;div&gt;&lt;div&gt;4. Kullanıcı, &quot;Düzenle&quot; seçeneğini seçer ve yeni bir isim girer.&lt;/div&gt;&lt;div&gt;&lt;span style=&quot;background-color: transparent; color: light-dark(rgb(0, 0, 0), rgb(255, 255, 255));&quot;&gt;5. Sistem, çalma listesi adını günceller ve değişikliği kullanıcıya yansıtır.&lt;/span&gt;&lt;/div&gt;&lt;div&gt;&lt;b&gt;Hata Senaryosu:&lt;/b&gt;&lt;/div&gt;&lt;div&gt;&lt;span style=&quot;background-color: transparent; color: light-dark(rgb(0, 0, 0), rgb(255, 255, 255));&quot;&gt;-Kullanıcı, çalma listesi adı için geçersiz bir giriş yaparsa (örneğin, boş bırakır veya çok uzun bir isim girer), sistem &quot;Lütfen geçerli bir isim girin&quot; hata mesajı gösterir.&lt;/span&gt;&lt;/div&gt;&lt;div&gt;&lt;span style=&quot;background-color: transparent; color: light-dark(rgb(0, 0, 0), rgb(255, 255, 255));&quot;&gt;-Sistem çevrimdışıysa veya veritabanına erişim sağlanamazsa, &quot;Bağlantı Hatası&quot; mesajı görüntülenir ve çalma listesi oluşturma işlemi başarısız olur.&lt;/span&gt;&amp;nbsp;&lt;/div&gt;&lt;/div&gt;" style="text;html=1;align=left;verticalAlign=middle;whiteSpace=wrap;rounded=0;" vertex="1" parent="1">
          <mxGeometry x="-850" y="990" width="450" height="390" as="geometry" />
        </mxCell>
        <mxCell id="FCQOrwYPSLoCCznjD-UI-431" value="&lt;div style=&quot;&quot;&gt;&lt;b style=&quot;background-color: transparent; color: light-dark(rgb(0, 0, 0), rgb(255, 255, 255));&quot;&gt;Use Case Adı: UC9 -&amp;nbsp;&lt;/b&gt;&lt;span style=&quot;background-color: transparent; color: light-dark(rgb(0, 0, 0), rgb(255, 255, 255));&quot;&gt;&lt;b&gt;Hesap Bilgilerini Güncelle&lt;/b&gt;&lt;/span&gt;&lt;/div&gt;&lt;div&gt;&lt;div style=&quot;text-align: left;&quot;&gt;&lt;b&gt;&lt;br&gt;&lt;/b&gt;&lt;/div&gt;&lt;div&gt;&lt;div style=&quot;text-align: left;&quot;&gt;&lt;b&gt;Aktörler:&lt;/b&gt;&lt;span style=&quot;background-color: transparent; color: light-dark(rgb(0, 0, 0), rgb(255, 255, 255));&quot;&gt;Dinleyici,Premium Dinleyici, Spotify Sistemi&lt;/span&gt;&lt;/div&gt;&lt;/div&gt;&lt;div&gt;&lt;div style=&quot;text-align: left;&quot;&gt;&lt;b&gt;Ön Koşullar:&lt;/b&gt;&amp;nbsp;&lt;span style=&quot;background-color: transparent; color: light-dark(rgb(0, 0, 0), rgb(255, 255, 255));&quot;&gt;Kullanıcı sistemde oturum açmış olmalıdır&lt;/span&gt;&lt;/div&gt;&lt;/div&gt;&lt;div&gt;&lt;div style=&quot;text-align: left;&quot;&gt;&lt;b&gt;Temel Akış:&lt;/b&gt;&lt;/div&gt;&lt;/div&gt;&lt;div&gt;&lt;div style=&quot;text-align: left;&quot;&gt;1. Kullanıcı, uygulama arayüzünde &quot;Hesap Ayarları&quot; veya &quot;Profil&quot; bölümüne erişir.&amp;nbsp;&lt;/div&gt;&lt;div style=&quot;text-align: left;&quot;&gt;&amp;nbsp;2. Kullanıcı, &quot;Hesap Bilgilerini Güncelle&quot; seçeneğini seçer.&lt;/div&gt;&lt;/div&gt;&lt;div&gt;&lt;div style=&quot;text-align: left;&quot;&gt;3. Sistem, mevcut hesap bilgilerini (&lt;span style=&quot;background-color: transparent; color: light-dark(rgb(0, 0, 0), rgb(255, 255, 255));&quot;&gt;e-posta, şifre, kullanıcı adı, tam ad, doğum tarihi, cinsiyet, ülke&lt;/span&gt;&lt;span style=&quot;background-color: transparent; color: light-dark(rgb(0, 0, 0), rgb(255, 255, 255));&quot;&gt;) gösterir.&lt;/span&gt;&lt;br&gt;&lt;/div&gt;&lt;/div&gt;&lt;div&gt;&lt;div style=&quot;text-align: left;&quot;&gt;4. Kullanıcı, güncellemek istediği bilgileri&amp;nbsp; girer.&lt;/div&gt;&lt;/div&gt;&lt;div&gt;&lt;div style=&quot;text-align: left;&quot;&gt;5. Kullanıcı, değişiklikleri kaydetmek için &quot;Kaydet&quot; butonuna basar.&lt;/div&gt;&lt;/div&gt;&lt;div&gt;&lt;div style=&quot;text-align: left;&quot;&gt;6. Sistem, kimlik doğrulaması için mevcut şifrenin girilmesini ister&lt;/div&gt;&lt;/div&gt;&lt;div&gt;&lt;div style=&quot;text-align: left;&quot;&gt;7. Kullanıcı, mevcut şifreyi girer ve doğrulamayı tamamlar.&lt;/div&gt;&lt;/div&gt;&lt;div&gt;&lt;div style=&quot;text-align: left;&quot;&gt;8. Sistem, güncellenen bilgileri kaydeder ve kullanıcıya &quot;Bilgileriniz güncellendi&quot; mesajını gösterir.&lt;/div&gt;&lt;/div&gt;&lt;div&gt;&lt;div style=&quot;text-align: left;&quot;&gt;&lt;b&gt;Alternatif Akış:&lt;/b&gt;&lt;/div&gt;&lt;div style=&quot;&quot;&gt;&lt;div style=&quot;text-align: left;&quot;&gt;&amp;nbsp;1. Kullanıcı, yeni bir e-posta adresi girer.&lt;/div&gt;&lt;div&gt;&lt;div style=&quot;text-align: left;&quot;&gt;&amp;nbsp;2. Sistem, yeni e-posta adresine bir doğrulama bağlantısı gönderir.&lt;/div&gt;&lt;div style=&quot;text-align: left;&quot;&gt;&lt;span style=&quot;background-color: transparent; color: light-dark(rgb(0, 0, 0), rgb(255, 255, 255));&quot;&gt;3. Kullanıcı, e-posta doğrulama bağlantısına tıklayarak değişikliği onaylar.&lt;/span&gt;&lt;/div&gt;&lt;div style=&quot;text-align: left;&quot;&gt;&lt;span style=&quot;background-color: transparent; color: light-dark(rgb(0, 0, 0), rgb(255, 255, 255));&quot;&gt;4. Sistem, e-posta adresini günceller ve kullanıcıyı bilgilendirir.&lt;/span&gt;&amp;nbsp;&lt;/div&gt;&lt;/div&gt;&lt;div&gt;&lt;div style=&quot;text-align: left;&quot;&gt;5. Kullanıcı, şifre değişikliğinden vazgeçer ve &quot;İptal&quot; butonuna basar&lt;span style=&quot;background-color: transparent; color: light-dark(rgb(0, 0, 0), rgb(255, 255, 255));&quot;&gt;.&lt;/span&gt;&lt;/div&gt;&lt;div style=&quot;text-align: left;&quot;&gt;&lt;span style=&quot;background-color: transparent; color: light-dark(rgb(0, 0, 0), rgb(255, 255, 255));&quot;&gt;6. Sistem, değişiklikleri kaydetmeden hesap ayarları ekranına geri döner.&lt;/span&gt;&lt;span style=&quot;background-color: transparent; color: light-dark(rgb(0, 0, 0), rgb(255, 255, 255));&quot;&gt;&amp;nbsp;&lt;/span&gt;&lt;/div&gt;&lt;/div&gt;&lt;div&gt;&lt;div style=&quot;text-align: left;&quot;&gt;&lt;b&gt;Hata Senaryosu:&lt;/b&gt;&lt;/div&gt;&lt;/div&gt;&lt;div&gt;&lt;div style=&quot;text-align: left;&quot;&gt;- Kullanıcı, mevcut şifreyi yanlış girerse, sistem &quot;Geçersiz Şifre&quot; hata mesajı gösterir ve doğrulamayı tekrar ister.&lt;/div&gt;&lt;/div&gt;&lt;div&gt;&lt;div style=&quot;text-align: left;&quot;&gt;&amp;nbsp;- Yeni e-posta adresi zaten başka bir hesapta kayıtlıysa, sistem &quot;Bu e-posta adresi zaten kullanılıyor&quot; hata mesajı gösterir.&lt;/div&gt;&lt;/div&gt;&lt;div&gt;&lt;div style=&quot;text-align: left;&quot;&gt;- Sistem çevrimdışıysa veya veritabanına erişim sağlanamazsa, &quot;Bağlantı Hatası&quot; mesajı görüntülenir ve güncelleme işlemi başarısız olur.&lt;/div&gt;&lt;/div&gt;&lt;/div&gt;&lt;div&gt;&lt;b&gt;&lt;br&gt;&lt;/b&gt;&lt;/div&gt;&lt;div style=&quot;text-align: left;&quot;&gt;&lt;/div&gt;&lt;/div&gt;&lt;/div&gt;" style="text;html=1;align=center;verticalAlign=middle;whiteSpace=wrap;rounded=0;" vertex="1" parent="1">
          <mxGeometry x="-850" y="1420" width="440" height="430" as="geometry" />
        </mxCell>
        <mxCell id="FCQOrwYPSLoCCznjD-UI-432" value="&lt;b&gt;Use Case Adı: UC11 - Jam Başlatma&lt;/b&gt;&lt;div&gt;&lt;b&gt;&lt;br&gt;&lt;/b&gt;&lt;div&gt;&lt;div style=&quot;text-align: left;&quot;&gt;&lt;b&gt;Aktörler:&lt;/b&gt;&amp;nbsp;&lt;span style=&quot;background-color: transparent; color: light-dark(rgb(0, 0, 0), rgb(255, 255, 255));&quot;&gt;Premium Dinleyici, Spotify Sistemi&lt;/span&gt;&lt;/div&gt;&lt;div&gt;&lt;div style=&quot;text-align: left;&quot;&gt;&lt;b&gt;Ön Koşullar:&amp;nbsp;&lt;/b&gt;&lt;/div&gt;&lt;div style=&quot;text-align: left;&quot;&gt;&lt;span style=&quot;background-color: transparent; color: light-dark(rgb(0, 0, 0), rgb(255, 255, 255));&quot;&gt;- Kullanıcı sistemde oturum açmış olmalıdır&lt;/span&gt;&lt;/div&gt;&lt;/div&gt;&lt;div&gt;&lt;div style=&quot;text-align: left;&quot;&gt;- Kullanıcının Premium abonesi olması gerekir&lt;/div&gt;&lt;/div&gt;&lt;div&gt;&lt;div style=&quot;text-align: left;&quot;&gt;- Kullanıcının internet bağlantısı aktif olmalıdır.&lt;/div&gt;&lt;/div&gt;&lt;div&gt;&lt;div style=&quot;text-align: left;&quot;&gt;&lt;b&gt;Temel Akış:&lt;/b&gt;&lt;/div&gt;&lt;/div&gt;&lt;div&gt;&lt;div style=&quot;text-align: left;&quot;&gt;1. Kullanıcı, uygulama arayüzünde &quot;Jam Başlat&quot; seçeneğine tıklar.&lt;/div&gt;&lt;/div&gt;&lt;div&gt;&lt;div style=&quot;text-align: left;&quot;&gt;2. Sistem, kullanıcıya bir çalma listesi veya şarkı seçme ekranı sunar.&lt;/div&gt;&lt;/div&gt;&lt;/div&gt;&lt;div&gt;&lt;div style=&quot;text-align: left;&quot;&gt;&amp;nbsp;3. Kullanıcı, Jam oturumu için bir çalma listesi veya şarkı seçer.&lt;/div&gt;&lt;div style=&quot;text-align: left;&quot;&gt;&lt;span style=&quot;background-color: transparent; color: light-dark(rgb(0, 0, 0), rgb(255, 255, 255));&quot;&gt;4. Sistem, kullanıcıya davet bağlantısı oluşturma veya arkadaş ekleme seçeneği sunar.&lt;/span&gt;&lt;/div&gt;&lt;/div&gt;&lt;div&gt;&lt;div style=&quot;text-align: left;&quot;&gt;5. Kullanıcı, davet etmek istediği arkadaşlarını seçer veya bağlantıyı kopyalar.&lt;/div&gt;&lt;/div&gt;&lt;div&gt;&lt;div style=&quot;text-align: left;&quot;&gt;6. Kullanıcı, &quot;Jam Başlat&quot; butonuna basar.&lt;/div&gt;&lt;/div&gt;&lt;div&gt;&lt;div style=&quot;text-align: left;&quot;&gt;7. Sistem, Jam oturumunu başlatır ve seçilen müziği tüm katılımcılarla senkronize eder.  8. Sistem, kullanıcıya ve davet edilenlere &quot;Jam oturumu başladı&quot; bildirimini gösterir.&lt;/div&gt;&lt;/div&gt;&lt;div&gt;&lt;div style=&quot;text-align: left;&quot;&gt;&lt;b&gt;Alternatif Akış:&lt;/b&gt;&lt;/div&gt;&lt;/div&gt;&lt;div&gt;&lt;div style=&quot;text-align: left;&quot;&gt;1. Davet edilen kullanıcılar Jam’a katılmayı reddeder veya bağlantıya tıklamaz.&lt;/div&gt;&lt;/div&gt;&lt;div&gt;&lt;div style=&quot;text-align: left;&quot;&gt;2. Sistem, Jam oturumunu tek kişilik olarak devam ettirir ve kullanıcıya bildirir.&lt;/div&gt;&lt;/div&gt;&lt;div&gt;&lt;div style=&quot;text-align: left;&quot;&gt;3. Kullanıcı, yeni bir seçim yerine mevcut bir çalma listesini kullanmayı seçer.&lt;/div&gt;&lt;/div&gt;&lt;div&gt;&lt;div style=&quot;text-align: left;&quot;&gt;4. Sistem, mevcut çalma listesini Jam oturumu için doğrudan başlatır.&lt;/div&gt;&lt;/div&gt;&lt;div&gt;&lt;div style=&quot;text-align: left;&quot;&gt;&lt;b&gt;Hata Senaryosu:&lt;/b&gt;&lt;/div&gt;&lt;/div&gt;&lt;div&gt;&lt;div style=&quot;text-align: left;&quot;&gt;- Kullanıcı Premium abone değilse, sistem &quot;Bu özellik yalnızca Premium kullanıcılar için kullanılabilir&quot; mesajı gösterir.&lt;/div&gt;&lt;/div&gt;&lt;div&gt;&lt;div style=&quot;text-align: left;&quot;&gt;- İnternet bağlantısı kesilirse, sistem &quot;Bağlantı Hatası&quot; mesajı gösterir ve Jam başlatılamaz.&lt;/div&gt;&lt;/div&gt;&lt;div&gt;&lt;div style=&quot;text-align: left;&quot;&gt;- Davet edilen kullanıcıların hesabı yoksa veya oturum açmamışlarsa, sistem &quot;Katılımcı oturum açmalı&quot; uyarısı gönderir.&lt;/div&gt;&lt;/div&gt;&lt;div&gt;&lt;br&gt;&lt;/div&gt;&lt;/div&gt;" style="text;html=1;align=center;verticalAlign=middle;whiteSpace=wrap;rounded=0;" vertex="1" parent="1">
          <mxGeometry x="-314" y="1770" width="470" height="430" as="geometry" />
        </mxCell>
      </root>
    </mxGraphModel>
  </diagram>
</mxfile>
